<?xml version="1.0" encoding="UTF-8"?>
<svg width="1027px" height="1027px" viewBox="0 0 1027 1027" version="1.1" xmlns="http://www.w3.org/2000/svg" xmlns:xlink="http://www.w3.org/1999/xlink">
    <!-- Generator: Sketch 52.5 (67469) - http://www.bohemiancoding.com/sketch -->
    <title>tiime-1</title>
    <desc>Created with Sketch.</desc>
    <defs>
        <linearGradient x1="11.8289245%" y1="2.27212184%" x2="116.517983%" y2="77.5560353%" id="linearGradient-1">
            <stop stop-color="#932DBF" offset="7%"></stop>
            <stop stop-color="#BC81B9" offset="100%"></stop>
        </linearGradient>
        <linearGradient x1="12.6724242%" y1="31.405641%" x2="91.3998555%" y2="73.3896636%" id="linearGradient-2">
            <stop stop-color="#FFFF00" offset="15%"></stop>
            <stop stop-color="#F7CC15" offset="100%"></stop>
        </linearGradient>
        <linearGradient x1="-5.54041877%" y1="34.0088776%" x2="100.848845%" y2="55.1567064%" id="linearGradient-3">
            <stop stop-color="#6AF0FF" offset="0%"></stop>
            <stop stop-color="#6AC0FF" offset="49%"></stop>
            <stop stop-color="#6A6BFF" offset="100%"></stop>
        </linearGradient>
        <radialGradient cx="50.9605859%" cy="50.1394799%" fx="50.9605859%" fy="50.1394799%" r="60.2486338%" gradientTransform="translate(0.509606,0.501395),scale(1.000000,0.758673),translate(-0.509606,-0.501395)" id="radialGradient-4">
            <stop stop-color="#ECFF2A" offset="0%"></stop>
            <stop stop-color="#F9FF3F" offset="100%"></stop>
        </radialGradient>
        <linearGradient x1="0%" y1="50%" x2="100%" y2="50%" id="linearGradient-5">
            <stop stop-color="#BC81B9" offset="0%"></stop>
            <stop stop-color="#932DBF" offset="100%"></stop>
        </linearGradient>
    </defs>
    <g id="Page-1" stroke="none" stroke-width="1" fill="none" fill-rule="evenodd">
        <g id="tiime-1">
            <rect id="Rectangle" fill="#FF9750" x="0" y="0" width="1027" height="1027"></rect>
            <path d="M153.92,332 C153.92,332 128.86,432.16 247.38,481.3 C365.9,530.44 454.55,527.55 454.55,527.55 C454.55,527.55 483.46,525.63 486.35,567.06 C489.24,608.49 492.13,701.96 512.35,743.39 C532.57,784.82 553.79,829.15 566.35,918.76 C573.44,969.46 594.15,974.76 600.45,977.59 C624.89,988.45 653.81,970.28 659.03,967 C703.89,938.81 728.44,866.3 708.03,828 C703.39,819.3 691.74,803.56 691.62,781 C691.618793,773.815978 692.536233,766.661289 694.35,759.71 C698.35,745.51 705.75,736.95 709.87,725.27 C715.7,708.73 754.25,618.16 719.56,524.69 C684.87,431.22 719.56,358.96 719.56,358.96 C719.56,358.96 732.71,307.33 703.13,262.16 C679.34,225.82 638.67,209.89 547.08,196.16 C356,167.35 249.68,151.36 191,220 C177.27,236.06 155.49,269.23 153.92,332 Z" id="Path" fill="url(#linearGradient-1)"></path>
            <path d="M252.06,173.4 C252.06,173.4 258.71,109.8 207.64,144.49 C156.57,179.18 177.18,247.14 230,215.57 C282.82,184 252.06,173.4 252.06,173.4 Z" id="Path" fill="url(#linearGradient-2)"></path>
            <path d="M227.08,250.77 C227.08,250.77 202,351 320.54,400.12 C439.08,449.24 527.71,446.38 527.71,446.38 C527.71,446.38 556.62,444.45 559.51,485.88 C562.4,527.31 565.29,620.78 585.51,662.21 C605.73,703.64 627,748 639.48,837.58 C651.96,927.16 708.86,893.47 708.86,878.05 C708.86,862.63 718.5,809.64 733.86,779.77 C749.22,749.9 764.7,728.7 764.7,699.77 C764.7,670.84 777.17,660.6 783,644.07 C788.83,627.54 827.38,537 792.69,443.49 C758,349.98 792.69,277.75 792.69,277.75 C792.69,277.75 832.2,122.62 620.21,114.91 C408.22,107.2 276.22,110.09 227.08,250.77 Z" id="Path" fill="url(#linearGradient-3)"></path>
            <path d="M253.81,274.26 C254,273.67 254.16,273.06 254.3,272.45 L254.3,272.58 L254.3,272.85 L254.16,273.74 C254.07,274.41 253.97,275.11 253.89,275.85 C253.81,276.59 253.72,277.35 253.66,278.14 L253.49,280.51 C253.36,283.74 253.32,287.03 253.49,290.33 C253.798232,296.89143 254.803895,303.401424 256.49,309.75 C258.164852,315.975263 260.533004,321.992916 263.55,327.69 C265.020329,330.52467 266.635806,333.281662 268.39,335.95 C269.336667,337.23 270.266667,338.52 271.18,339.82 C271.642714,340.469647 272.140102,341.093885 272.67,341.69 L274.2,343.55 C282.49,353.32 293.2,361.64 306.2,369.01 C312.7,372.72 319.73,376.17 327.47,379.79 C331.59,381.79 334.78,383.09 338.27,384.65 C340.01,385.38 341.77,386.03 343.52,386.72 L346.14,387.72 L348.81,388.64 C355.899038,391.163549 363.135905,393.250786 370.48,394.89 C377.839501,396.609979 385.291795,397.905449 392.8,398.77 C400.345542,399.66224 407.932552,400.159585 415.53,400.26 C417.43,400.26 419.34,400.26 421.24,400.26 C423.14,400.26 425.04,400.19 426.98,400.12 L433.7,399.85 C436.27,399.77 438.7,399.72 441.2,399.69 C451.05,399.59 460.79,399.86 470.74,400.51 C480.991874,401.151061 491.200664,402.356219 501.32,404.12 C506.6,405.07 512,406.2 517.62,407.72 C523.673029,409.3852 529.598341,411.483957 535.35,414 C538.724507,415.473757 542.010097,417.143264 545.19,419 C546.01,419.44 546.9,420 547.79,420.58 L550.42,422.29 C552.11,423.43 553.52,424.5 554.98,425.63 C557.771059,427.795922 560.441705,430.112707 562.98,432.57 C564.22,433.77 565.43,434.99 566.64,436.28 C567.24,436.92 567.84,437.58 568.47,438.28 L569.47,439.39 L570.01,440.02 L570.33,440.41 L570.5,440.61 C570.5,440.61 568.93,438.76 568.13,438.01 L570.83,441.01 C574.864325,446.103381 578.362817,451.599097 581.27,457.41 C584.039432,462.977547 586.279288,468.793136 587.96,474.78 C589.538301,480.446079 590.648698,486.232185 591.28,492.08 L591.79,497.3 C591.79,497.49 591.79,497.68 591.79,497.88 L591.89,498.49 C591.941077,498.914271 592.017886,499.335046 592.12,499.75 C592.533169,501.793565 593.11174,503.80017 593.85,505.75 C594.747393,508.281219 595.782265,510.761575 596.95,513.18 C599.47,518.56 602.85,524.61 606.56,531.18 C610.27,537.75 614.29,544.78 618.25,552.18 C622.21,559.58 626.07,567.57 629.59,575.83 C633.164072,584.244339 636.206715,592.874625 638.7,601.67 C639.98,606.11 641.07,610.62 642.04,615.15 C643.01,619.68 643.7,624.21 644.48,628.74 C644.79,631.1 645.03,633.53 645.3,635.93 L645.68,639.53 C645.75,640.11 645.79,640.75 645.81,641.39 L645.9,643.29 C646,645.84 646.11,648.37 646.17,650.92 C646.23,653.47 646.01,656.21 645.9,658.85 C645.9,660.16 645.71,661.5 645.56,662.85 L645.11,666.85 L644.87,668.85 C644.77,669.5 644.65,670.13 644.54,670.77 L643.84,674.6 L643.48,676.51 C643.35,677.13 643.21,677.68 643.07,678.27 L642.25,681.75 L641.83,683.47 L641.42,684.97 L640.61,687.97 C638.47,695.63 637.24,699.97 636.69,705.06 L636.54,705.99 L636.54,706.99 L636.42,708.99 L636.28,710.99 C636.28,711.68 636.28,712.4 636.28,713.1 L636.34,717.36 L636.74,721.92 L636.93,724.21 C636.93,724.97 637.15,725.8 637.25,726.6 L637.97,731.44 L638.32,733.87 L638.81,736.37 L639.81,741.37 C640.13,743.05 640.57,744.7 640.94,746.37 C641.31,748.04 641.67,749.7 642.15,751.37 L643.49,756.37 C643.93,758.04 644.49,759.73 644.97,761.37 C646.97,768.15 649.33,774.98 651.97,782.54 C654.913025,790.785709 657.419829,799.180664 659.48,807.69 C661.791169,817.515187 662.799821,827.601714 662.48,837.69 C662.33,840.22 662.12,842.74 661.91,845.26 C661.85,845.88 661.81,846.52 661.73,847.14 L661.45,848.97 L660.87,852.61 L660.26,856.25 C660.03,857.35 659.79,858.56 659.55,859.57 L658.22,865.27 C657.567743,867.815329 657.063564,870.396324 656.71,873 C656.54334,874.129063 656.516471,875.274363 656.63,876.41 C656.63,876.61 656.73,876.78 656.72,877 C656.793098,877.212824 656.853209,877.42989 656.9,877.65 C657.03,877.89 657.09,878.14 657.23,878.41 C657.364612,878.697975 657.514836,878.978392 657.68,879.25 C658.481075,880.544272 659.464519,881.716322 660.6,882.73 C662.882652,884.814565 665.714073,886.202516 668.76,886.73 C669.43,886.87 670.15,886.82 670.86,886.9 C671.191473,886.856143 671.525661,886.836091 671.86,886.84 C672.2,886.84 672.54,886.72 672.86,886.7 C674.41141,886.430891 675.912257,885.924988 677.31,885.2 C679.113228,884.261699 680.792781,883.102808 682.31,881.75 C683.185291,880.951914 684.01021,880.100277 684.78,879.2 L685.41,878.45 C685.63,878.19 685.92,877.82 686.12,877.56 C686.32,877.3 686.72,876.74 686.99,876.32 C688.118824,874.567828 688.987849,872.661362 689.57,870.66 C689.9,869.56 690.19,868.4 690.57,866.8 L690.72,866.17 L690.79,865.72 L690.94,864.82 L691.11,863.93 L691.19,863.08 C691.410093,860.898872 691.410093,858.701128 691.19,856.52 C691.01,854.2 690.63,851.31 690.19,847.34 C689.692575,842.690869 689.4955,838.014498 689.6,833.34 C689.66,830.76 689.89,828.11 690.18,825.51 L690.7,821.6 L691.05,819.6 L691.23,818.6 L691.47,817.48 C691.64,816.71 691.76,816.03 691.98,815.19 L692.63,812.74 L693.45,810.17 C693.75,809.31 694.08,808.46 694.45,807.61 C694.82,806.76 695.12,806.03 695.45,805.25 L696.45,803.25 L697.99,800.25 C698.85,798.58 699.52,797.25 700.15,795.92 C700.78,794.59 701.41,793.16 702.02,791.7 C703.23,788.77 704.46,785.57 705.53,782.38 C706.08,780.78 706.67,779.19 707.12,777.61 C707.57,776.03 708.12,774.44 708.55,772.87 C710.346468,766.340908 711.725918,759.704183 712.68,753 C713.28,749.31 713.81,745.42 714.68,740.92 L714.98,739.28 L715.34,737.56 L716.08,734.1 L716.99,730.56 L717.45,728.79 L718,727 L719.09,723.47 L720.33,720.02 C721.13,717.69 722.08,715.52 723.01,713.32 C723.94,711.12 724.96,709.07 725.95,706.96 C726.94,704.85 728.01,702.83 729.15,700.75 C730.29,698.67 731.43,696.75 732.38,695.13 C733.33,693.51 734.19,692.06 735.03,690.56 C736.696667,687.58 738.363333,684.466667 740.03,681.22 L744.72,674.73 C743.01,676.03 740.12,680.86 740.56,680.23 L740.67,680.04 L740.88,679.65 L741.34,678.8 L742.28,677.06 L744.14,673.48 C745.36,671.07 746.55,668.63 747.7,666.2 C749.99,661.34 752.15,656.45 753.96,651.7 L754.64,649.92 L755.28,648.01 L756.57,644.19 L757.87,640.36 C758.3,639.09 758.77,637.82 759.1,636.52 C760.52,631.35 762.15,626.22 763.22,620.97 C768.22,600.1 769.96,578.49 769.89,556.04 L769.81,547.59 L769.55,539.04 C769.48,536.2 769.33,533.31 769.19,530.42 C769.05,527.53 768.93,524.67 768.76,521.74 L766.67,486.33 L766.2,477.33 C766.04,474.33 765.9,471.33 765.79,468.28 L765.42,459.2 C765.32,456.2 765.22,453.11 765.16,450.06 C764.9,437.873333 764.926667,425.686667 765.24,413.5 C765.553333,401.313333 766.14,389.146667 767,377 C767.87,364.87 769,352.76 770.38,340.69 C771.05,334.69 771.84,328.63 772.64,322.61 L773.92,313.68 L774.24,311.45 L774.39,310.36 L774.51,309.36 C774.67,308.06 774.86,306.79 774.99,305.45 C775.62,300.13 775.93,294.81 776.14,289.45 C776.14,286.8 776.29,284.14 776.14,281.51 L776.07,277.51 L775.84,273.58 C775.255591,263.265235 773.579562,253.041461 770.84,243.08 C768.160628,233.431157 764.21996,224.177983 759.12,215.56 C758.81,215.03 758.53,214.47 758.21,213.95 L757.21,212.42 L755.15,209.35 L754.15,207.81 L753.9,207.42 L753.49,206.84 L752.66,205.65 L751.4,203.81 L750.28,202.21 C748.84,200.21 747.43,198.35 745.93,196.55 C744.43,194.75 742.85,193.05 741.19,191.38 C737.795474,188.008073 734.140859,184.908505 730.26,182.11 C726.246905,179.196467 722.033093,176.569936 717.65,174.25 C713.148415,171.83068 708.510671,169.673745 703.76,167.79 C701.4,166.79 698.9,165.94 696.46,165.03 C695.22,164.6 693.95,164.22 692.7,163.81 C691.45,163.4 690.21,162.97 688.92,162.63 C678.569735,159.629675 668.024658,157.347581 657.36,155.8 C646.418095,154.240141 635.403815,153.238843 624.36,152.8 L615.98,152.55 C614.62,152.5 613.13,152.48 611.65,152.46 L607.23,152.38 L589.56,152.13 C566.01,151.85 542.56,151.72 519.23,152.07 C495.9,152.42 472.77,153.22 450,155 C427.23,156.78 404.79,159.37 383.45,164.07 C380.79,164.67 378.1,165.22 375.45,165.85 L367.61,167.85 C364.97,168.45 362.45,169.26 359.9,170.01 L356.07,171.13 L354.15,171.68 C353.52,171.88 352.91,172.11 352.29,172.32 L344.85,174.87 C343.59,175.27 342.42,175.81 341.22,176.28 L337.63,177.74 L334.04,179.19 L330.59,180.83 L327.15,182.49 C326,183.04 324.83,183.56 323.76,184.21 L317.23,188 C316.680542,188.301343 316.149594,188.635272 315.64,189 L314.1,190 L311,192.06 C310,192.76 308.9,193.38 307.94,194.14 L305,196.38 C303.029043,197.814324 301.136331,199.353196 299.33,200.99 C297.53,202.62 295.7,204.2 293.93,205.84 L288.93,211.07 C288.51,211.51 288.08,211.92 287.68,212.38 L286.53,213.78 L284.22,216.56 L281.9,219.32 L279.78,222.32 L277.66,225.25 C276.96,226.25 276.21,227.17 275.6,228.25 L271.73,234.46 C271.05,235.46 270.5,236.58 269.91,237.66 L268.14,240.9 L266.36,244.14 C265.8,245.23 265.3,246.4 264.77,247.52 L261.54,254.28 L258.67,261.28 C258.19,262.44 257.67,263.64 257.23,264.76 L256.12,267.95 C255.39,270.06 254.61,272.16 253.81,274.26 Z M190.35,255.26 C191.636667,251.82 192.97,248.393333 194.35,244.98 L196.35,239.88 C197.04,238.26 197.76,236.78 198.47,235.23 L202.81,226.06 C204.42,223.06 206.08,220.06 207.72,217.06 C208.56,215.57 209.36,214.06 210.25,212.59 L213.04,208.22 L215.84,203.85 C216.78,202.4 217.67,200.94 218.75,199.55 L224.99,191.17 C225.99,189.75 227.17,188.44 228.29,187.1 L231.71,183.1 C240.899785,172.495094 251.213521,162.919012 262.47,154.54 C273.537074,146.299887 285.352071,139.115137 297.76,133.08 C309.772577,127.251432 322.187768,122.29204 334.91,118.24 C347.229091,114.345722 359.789089,111.25917 372.51,109 L377.21,108.13 C378.78,107.83 380.33,107.64 381.89,107.39 L391.26,105.98 C394.37,105.53 397.47,105.22 400.58,104.83 C403.69,104.44 406.8,104.04 409.89,103.83 C416.07,103.28 422.27,102.63 428.41,102.29 L437.63,101.69 L446.81,101.3 C471.29,100.3 495.48,100.38 519.5,101 C543.52,101.62 567.35,102.7 591.11,104 L608.9,104.95 L613.35,105.18 C614.83,105.26 616.29,105.33 617.89,105.45 L627.24,106.07 C639.72,107.07 652.24,108.64 664.78,110.87 C677.482935,113.10082 690.016222,116.208246 702.29,120.17 C703.84,120.64 705.39,121.23 706.93,121.77 C708.47,122.31 710.03,122.85 711.57,123.43 C714.64,124.68 717.74,125.78 720.78,127.16 C726.96934,129.761616 733.005748,132.713046 738.86,136 C751.06342,142.758961 762.225545,151.246757 772,161.2 C774.48,163.76 776.88,166.43 779.15,169.2 C781.42,171.97 783.57,174.86 785.51,177.68 L786.91,179.74 L788.14,181.58 L789.14,183.08 L790.56,185.24 L793.4,189.58 L794.81,191.74 C795.26,192.48 795.66,193.24 796.09,193.99 C802.966661,205.816207 808.287327,218.480939 811.92,231.67 C815.459744,244.541518 817.625174,257.751984 818.38,271.08 L818.66,276.01 L818.77,280.93 C818.89,284.21 818.77,287.47 818.77,290.73 C818.55,297.25 818.17,303.73 817.44,310.17 C817.28,311.78 817.05,313.44 816.86,315.08 L816.55,317.41 L816.25,319.57 L815.08,328.23 C814.37,333.94 813.67,339.66 813.08,345.38 C811.86,356.826667 810.923333,368.293333 810.27,379.78 C809.616667,391.266667 809.236667,402.75 809.13,414.23 C809.05,425.71 809.24,437.18 809.7,448.64 C810.15,460.07 810.98,471.64 811.88,483.25 L814.82,518.64 C815.07,521.64 815.27,524.64 815.49,527.64 C815.71,530.64 815.94,533.64 816.09,536.74 L816.61,545.92 L816.94,555.21 C817.65,580.03 816.33,605.99 810.94,631.34 C809.77,637.71 808,643.93 806.4,650.2 C806.02,651.77 805.51,653.3 805.04,654.84 L803.59,659.45 L802.15,664.07 L801.41,666.38 L800.57,668.77 C798.31,675.13 795.82,681.13 793.2,687.03 C791.87,689.97 790.51,692.87 789.11,695.76 L786.95,700.09 L785.83,702.28 L785.25,703.4 L784.94,703.98 L784.78,704.27 C785.14,703.81 782.15,708.8 780.35,710.27 L785.04,703.78 C783.25,707.43 781.35,711.15 779.31,714.93 C778.31,716.81 777.22,718.71 776.25,720.42 C775.28,722.13 774.48,723.54 773.79,724.87 C773.1,726.2 772.39,727.57 771.79,728.98 C771.19,730.39 770.44,731.79 769.95,733.15 C769.46,734.51 768.82,735.88 768.41,737.21 L767.72,739.21 L767.15,741.21 L766.86,742.21 L766.61,743.21 L766.12,745.28 L765.69,747.49 L765.47,748.6 L765.28,749.8 C764.75,752.89 764.28,756.64 763.67,760.58 C763.36,762.58 763.08,764.58 762.67,766.78 L762.13,769.98 L761.5,773.23 C760.66,777.57 759.62,781.94 758.5,786.23 C757.97,788.4 757.28,790.47 756.67,792.59 C756.06,794.71 755.36,796.75 754.67,798.81 C753.31,802.93 751.81,806.95 750.11,811.16 C749.25,813.26 748.33,815.4 747.34,817.54 C746.35,819.68 745.28,821.81 744.34,823.54 L743.28,825.66 L743.01,826.24 C743.01,826.35 742.91,826.47 742.89,826.54 C742.874602,826.594948 742.854529,826.648476 742.83,826.7 C742.840115,826.756215 742.840115,826.813785 742.83,826.87 C742.809187,826.987928 742.782487,827.104741 742.75,827.22 C742.75,827.32 742.68,827.59 742.64,827.76 L742.58,828.06 L742.51,828.46 L742.38,829.28 L742.15,831.11 C742.04,832.33 741.93,833.53 741.9,834.81 C741.79,837.34 741.81,840.13 741.9,843.9 C742.074456,848.543802 742.004359,853.193567 741.69,857.83 C741.275105,863.36145 740.269377,868.832609 738.69,874.15 L738.11,876.15 L737.46,878.03 L736.79,879.91 L736.45,880.84 L736.15,881.59 C735.32,883.65 734.32,886.12 733.15,888.59 C730.770245,893.709635 727.871751,898.571734 724.5,903.1 C723.65,904.25 722.77,905.36 721.86,906.45 L720.72,907.79 L719.47,909.23 C717.76,911.23 715.88,913.13 713.93,915.02 C709.84763,918.977307 705.316921,922.444139 700.43,925.35 C695.137539,928.504913 689.409467,930.86353 683.43,932.35 C681.88,932.69 680.34,933.06 678.78,933.35 C677.22,933.64 675.64,933.76 674.06,933.93 C670.913843,934.150052 667.756157,934.150052 664.61,933.93 C658.369731,933.470886 652.232519,932.085717 646.4,929.82 C634.849917,925.32258 624.799701,917.663623 617.4,907.72 C616.4,906.48 615.56,905.08 614.68,903.72 C613.8,902.36 613.01,900.87 612.22,899.42 C611.43,897.97 610.74,896.36 610.09,894.77 C609.44,893.18 608.83,891.54 608.38,889.87 C606.510416,883.549169 605.676295,876.967385 605.91,870.38 C606.124707,865.292468 606.675912,860.224725 607.56,855.21 L608.48,849.57 C608.62,848.68 608.7,848 608.82,847.2 L608.98,845.1 L609.16,843.02 L609.26,842.02 C609.26,841.68 609.26,841.35 609.26,841.02 L609.26,837.02 C608.944371,831.675535 607.935936,826.394699 606.26,821.31 C604.51,815.76 601.93,809.52 598.98,802.65 C596.03,795.78 592.73,788.3 589.7,780.51 C588.94,778.51 588.15,776.62 587.43,774.6 L585.27,768.6 C584.53,766.6 583.92,764.53 583.27,762.49 C582.62,760.45 581.92,758.4 581.33,756.32 L579.57,750.09 L578.7,746.97 L577.94,743.72 L576.43,737.21 C576.2,736.11 575.91,735.07 575.72,733.91 L575.13,730.47 L573.99,723.57 C573.71,721.18 573.49,718.72 573.25,716.29 C573.14,715.07 573.01,713.87 572.92,712.63 L572.81,708.81 L572.73,704.98 L572.73,703.07 L572.81,701.12 C572.95,698.53 573.02,695.89 573.28,693.33 C573.54,690.77 573.85,688.18 574.22,685.73 L574.81,682.18 L575.12,680.41 L575.27,679.52 L575.42,678.74 L576.63,672.66 C578.15,665.21 578.63,660.94 578.56,656.15 C578.49,654.93 578.45,653.72 578.42,652.51 L577.98,648.59 L577.88,647.59 C577.854787,647.254013 577.808025,646.919993 577.74,646.59 L577.34,644.46 L576.58,640.19 L575.48,635.64 L574.95,633.37 L574.69,632.23 L574.37,631.12 C573.55,628.12 572.66,625.2 571.64,622.28 C569.564955,616.344286 567.161239,610.52863 564.44,604.86 C561.66,599.05 558.44,593.24 554.98,587.2 C551.52,581.16 547.62,574.96 543.48,568.2 C539.34,561.44 535.01,554.2 530.71,545.7 C528.57,541.5 526.47,536.89 524.54,531.95 C522.470948,526.709831 520.799553,521.321254 519.54,515.83 C519.18,514.42 518.91,512.91 518.64,511.43 C518.37,509.95 518.1,508.43 517.91,506.9 L517.62,504.6 L517.48,503.45 L517.39,502.63 C517.3,501.63 517.24,501.19 517.17,500.63 C516.932219,498.81105 516.544226,497.014913 516.01,495.26 C515.266744,492.638222 514.008964,490.19065 512.31,488.06 L515.01,491.06 C514.16,490.25 512.55,488.37 512.51,488.29 L512.57,488.35 C512.57,488.35 512.57,488.35 512.57,488.35 L512.44,488.21 L512.01,487.76 C511.68,487.43 511.32,487.06 510.95,486.76 C510.264402,486.117557 509.546823,485.510118 508.8,484.94 C508.49,484.71 508.12,484.44 507.95,484.34 C507.886276,484.318112 507.825745,484.287846 507.77,484.25 C507.694881,484.179848 507.606477,484.125446 507.51,484.09 C506.820581,483.721264 506.113017,483.387507 505.39,483.09 C502.952482,482.091665 500.450076,481.259757 497.9,480.6 C494.9,479.81 491.57,479.08 488.07,478.46 C480.608045,477.177637 473.084609,476.283102 465.53,475.78 C457.68,475.2 449.53,474.95 441.53,474.93 C439.53,474.93 437.53,474.93 435.66,474.93 L429.01,475.12 C426.49,475.17 423.91,475.19 421.37,475.2 C418.83,475.21 416.26,475.2 413.7,475.06 C403.457872,474.728827 393.240343,473.857616 383.09,472.45 C372.903124,471.032483 362.80639,469.029163 352.85,466.45 C342.85235,463.894675 333.017845,460.738951 323.4,457 L319.78,455.62 L316.21,454.12 C313.84,453.12 311.46,452.12 309.1,451.05 C304.5,448.86 299.54,446.55 295.68,444.54 C287.4,440.33 278.53,435.65 269.68,430.22 C260.512808,424.644746 251.790172,418.369397 243.59,411.45 C234.98255,404.175718 227.117424,396.066063 220.11,387.24 L217.5,383.83 C216.64,382.69 215.74,381.58 214.97,380.37 L210.2,373.2 C207.198404,368.323912 204.46112,363.289981 202,358.12 C197.056777,347.857184 193.244362,337.087197 190.63,326 C188.061161,315.005102 186.663374,303.76917 186.46,292.48 C186.347619,286.83465 186.524517,281.187249 186.99,275.56 L187.43,271.27 C187.59,269.84 187.81,268.37 188.01,266.92 C188.21,265.47 188.48,263.92 188.75,262.41 L189.21,260.02 L189.51,258.65 L189.67,257.95 C189.87,257 190.09,256.15 190.35,255.29 L190.35,255.26 Z" id="Shape" fill="url(#radialGradient-4)" fill-rule="nonzero"></path>
            <polygon id="Path" fill="url(#linearGradient-5)" opacity="0.3" style="mix-blend-mode: color-burn;" points="805 0 0 0 0 1027 193 1027"></polygon>
        </g>
    </g>
</svg>