<?xml version="1.0" encoding="UTF-8"?>
<svg width="512px" height="512px" viewBox="0 0 512 512" version="1.1" xmlns="http://www.w3.org/2000/svg" xmlns:xlink="http://www.w3.org/1999/xlink">
    <!-- Generator: Sketch 52.5 (67469) - http://www.bohemiancoding.com/sketch -->
    <title>vector-midmorning</title>
    <desc>Created with Sketch.</desc>
    <defs>
        <linearGradient x1="0%" y1="50%" x2="100%" y2="50%" id="linearGradient-1">
            <stop stop-color="#BF8500" offset="33%"></stop>
            <stop stop-color="#C5FF7F" offset="100%"></stop>
        </linearGradient>
        <linearGradient x1="11.8289245%" y1="2.27212184%" x2="116.517983%" y2="77.5560353%" id="linearGradient-2">
            <stop stop-color="#FF4F15" offset="7%"></stop>
            <stop stop-color="#E91A00" offset="100%"></stop>
        </linearGradient>
        <linearGradient x1="0.00447582246%" y1="50.00319%" x2="99.9821488%" y2="50.00319%" id="linearGradient-3">
            <stop stop-color="#2287FF" offset="32%"></stop>
            <stop stop-color="#F7CC15" offset="100%"></stop>
        </linearGradient>
        <linearGradient x1="-4.87950549%" y1="28.3243611%" x2="104.15606%" y2="57.5079844%" id="linearGradient-4">
            <stop stop-color="#FFCB15" offset="0%"></stop>
            <stop stop-color="#E4CC2F" offset="6%"></stop>
            <stop stop-color="#AECF62" offset="18%"></stop>
            <stop stop-color="#84D18A" offset="29%"></stop>
            <stop stop-color="#66D3A7" offset="40%"></stop>
            <stop stop-color="#54D4B9" offset="49%"></stop>
            <stop stop-color="#4DD4BF" offset="55%"></stop>
            <stop stop-color="#FFCB15" offset="100%"></stop>
        </linearGradient>
        <linearGradient x1="0%" y1="50%" x2="100%" y2="50%" id="linearGradient-5">
            <stop stop-color="#BC81B9" offset="0%"></stop>
            <stop stop-color="#4D2DBF" offset="69%"></stop>
        </linearGradient>
    </defs>
    <g id="midmorning" stroke="none" stroke-width="1" fill="none" fill-rule="evenodd">
        <g>
            <rect id="Rectangle" fill="#50EFC9" x="0" y="0" width="512" height="512"></rect>
            <polygon id="Path" fill="url(#linearGradient-1)" opacity="0.31" points="401.266187 5.55111512e-17 96 512 512 512 512 0"></polygon>
            <path d="M77.1064482,165.109579 C77.1064482,165.109579 64.5799367,215.094589 123.823438,239.617986 C183.06694,264.141383 227.379599,262.699124 227.379599,262.699124 C227.379599,262.699124 241.830575,261.740944 243.275172,282.416653 C244.71977,303.092362 246.164368,349.738717 256.271553,370.414425 C266.378738,391.090134 276.985784,413.213092 283.264036,457.933108 C286.808049,483.235025 297.160166,485.879999 300.309289,487.292315 C312.525887,492.712016 326.981861,483.644248 329.591134,482.007358 C352.01489,467.939093 364.286472,431.75286 354.084313,412.639183 C351.764959,408.297434 345.941581,400.442361 345.881598,389.183757 C345.880994,385.598559 346.339587,382.028 347.246218,378.558948 C349.245661,371.472415 352.944631,367.200533 355.004057,361.37161 C357.918246,353.117296 377.187879,307.918191 359.847708,261.271836 C342.507537,214.625481 359.847708,178.564011 359.847708,178.564011 C359.847708,178.564011 366.420878,152.797976 351.634995,130.255814 C339.743307,112.120278 319.413969,104.170386 273.631718,97.3184069 C178.118318,82.9407297 124.973118,74.9608943 95.6412865,109.215798 C88.7781977,117.230567 77.8912296,133.784109 77.1064482,165.109579 Z" id="Path" fill="url(#linearGradient-2)" style="mix-blend-mode: hard-light;"></path>
            <path d="M125.586822,86.2852237 C125.586822,86.2852237 128.882543,55.0466998 103.572393,72.0854481 C78.2622434,89.1241965 88.476502,122.504229 114.653947,106.997937 C140.831392,91.4916444 125.586822,86.2852237 125.586822,86.2852237 Z" id="Path" fill="url(#linearGradient-3)"></path>
            <path d="M111.09568,132.074688 C111.09568,132.074688 106.688136,149.754062 115.553082,169.234298 C125.28059,190.625143 144.232029,199.993615 157.753814,206.543564 C180.858515,217.742829 202.711753,218.780444 216.088946,218.161866 C218.542014,218.062095 251.324364,216.949651 264.452261,226.103616 C266.669844,227.67309 268.680155,229.516846 270.435352,231.591007 C276.184105,238.719626 276.717597,246.945723 276.917033,249.235461 C278.687031,267.693047 297.359259,282.938015 303.885814,311.377663 C310.512086,340.366049 297.09002,338.630038 303.885814,369.144917 C309.684426,395.085308 320.309397,404.698218 316.904021,424.652365 C315.866952,430.698472 313.782843,436.699681 316.904021,443.070043 C320.221774,449.481042 326.698786,453.641057 333.90597,453.989949 C343.693309,454.309216 349.756174,446.93117 351.486285,444.81603 C353.676225,442.073451 355.307471,438.927878 356.287715,435.557306 C359.403908,425.984304 356.31763,421.09055 357.783487,411.61233 C358.715852,405.47643 360.196667,406.244665 363.961028,395.778715 C370.696991,377.061725 366.992461,371.728979 374.197099,357.227303 C376.191462,353.236474 377.08394,352.388423 380.67878,345.254815 C383.664064,339.719475 386.246805,333.976099 388.406939,328.069306 C400.92157,292.481086 394.739043,264.505372 393.15851,228.009237 C392.161004,203.996477 393.448177,179.94322 397.002646,156.174309 C398.633038,144.062142 400.203599,118.416075 384.87193,97.0501721 C381.177371,91.9020022 367.421249,66.310809 307.041894,64.1607497 C201.360572,60.3794389 135.54159,61.8710114 111.09568,132.074688 Z" id="Path" fill="url(#linearGradient-4)"></path>
            <path d="M126.578217,136.772551 C126.667872,136.478052 126.752546,136.17357 126.817297,135.874079 L126.817297,135.933977 L126.792393,136.068748 L126.727642,136.512992 C126.682814,136.847423 126.633006,137.196829 126.593159,137.566201 C126.553312,137.935572 126.508485,138.314927 126.4786,138.709256 L126.393925,139.892244 C126.329174,141.504501 126.309251,143.146707 126.393925,144.793905 C126.547526,148.069041 127.048431,151.318503 127.88818,154.487415 C128.726286,157.594207 129.907401,160.597679 131.409639,163.442182 C132.145572,164.854511 132.951825,166.228908 133.82535,167.560177 C134.296871,168.19909 134.76175,168.842994 135.219988,169.491891 C135.448901,169.817336 135.696711,170.129011 135.962134,170.425303 L136.719223,171.348732 C140.853327,176.225436 146.182834,180.378371 152.657936,184.04713 C155.900469,185.89898 159.402005,187.62105 163.262162,189.422985 C165.314271,190.421287 166.903162,191.065191 168.641478,191.843867 C169.508145,192.203255 170.384774,192.527703 171.256423,192.877109 L172.561405,193.37626 L173.891291,193.835479 C177.429536,195.090739 181.040674,196.129226 184.704712,196.945189 C188.37104,197.798013 192.082778,198.441292 195.821965,198.871911 C199.580457,199.313955 203.359432,199.558873 207.143432,199.605663 C208.089793,199.605663 209.041135,199.605663 209.987496,199.605663 C210.933858,199.605663 211.880219,199.570722 212.846503,199.540773 L216.193633,199.401011 C217.473711,199.356087 218.684057,199.33113 219.929269,199.316155 C224.835404,199.26624 229.68675,199.391028 234.642694,199.715476 C239.748741,200.030265 244.833595,200.626823 249.874127,201.502436 C252.508995,201.97663 255.198653,202.535678 257.992909,203.299379 C261.018299,204.110875 263.981299,205.140136 266.858818,206.37914 C268.539341,207.109452 270.177331,207.934367 271.764954,208.849937 C272.173383,209.069563 272.616679,209.349088 273.059974,209.638595 L274.369937,210.492143 C275.2117,211.061175 275.914,211.590275 276.641204,212.154316 C278.029038,213.238303 279.359097,214.394599 280.625882,215.618423 C281.243507,216.212412 281.841209,216.826368 282.443892,217.465281 C282.747723,217.789729 283.046574,218.114177 283.360368,218.463583 L283.858452,219.01764 L284.127418,219.337097 L284.286805,219.526774 L284.37148,219.631596 C284.37148,219.631596 283.589487,218.708167 283.191019,218.333804 L284.535848,219.831256 C286.546695,222.370061 288.290918,225.109918 289.740834,228.007348 C291.126088,230.784386 292.243549,233.687648 293.078002,236.677598 C293.867272,239.503901 294.423675,242.390369 294.741605,245.307917 L294.995628,247.918476 C294.995628,248.013315 294.995628,248.103162 294.995628,248.202992 L295.050418,248.512466 C295.085284,248.717117 295.100226,248.916778 295.159996,249.141396 C295.368382,250.161347 295.658203,251.162871 296.026664,252.136301 C296.477726,253.397282 296.994791,254.633563 297.575708,255.84 C298.830881,258.525432 300.519389,261.545295 302.367283,264.824716 C304.215178,268.104137 306.22246,271.613168 308.194876,275.306884 C310.167291,279.000601 312.09986,282.983825 313.853119,287.106811 C315.638236,291.304839 317.158722,295.61099 318.405614,299.999878 C319.038182,302.216108 319.586075,304.492236 320.074198,306.728432 C320.562321,308.964628 320.901019,311.250739 321.289525,313.511892 C321.443931,314.689888 321.568452,315.902825 321.702935,317.095796 L321.892207,318.892739 C321.929519,319.200909 321.951131,319.510784 321.956958,319.821159 L322.001786,320.774538 C322.056575,322.047372 322.111365,323.305233 322.14125,324.583059 C322.171135,325.860885 322.066537,327.223567 322.011748,328.541325 C322.011748,329.195213 321.912131,329.864075 321.842399,330.537929 L321.618261,332.534532 L321.49872,333.532834 C321.453893,333.857282 321.389142,334.176739 321.334352,334.496195 L320.990674,336.407943 L320.811363,337.361321 C320.746612,337.670795 320.676881,337.945328 320.607149,338.239827 L320.198719,339.976872 L319.989524,340.835411 L319.79029,341.584138 L319.386841,343.08159 C318.320939,346.905086 317.713276,349.071401 317.439329,351.612079 L317.364617,352.076289 L317.364617,352.57544 L317.309827,353.573742 L317.240095,354.572043 C317.240095,354.911466 317.240095,355.270855 317.240095,355.62026 L317.269981,357.746643 L317.469214,360.022771 L317.563851,361.165826 C317.588755,361.545181 317.67841,361.964468 317.728219,362.358797 L318.08684,364.774687 L318.261169,365.987624 L318.505231,367.235501 L319.003316,369.731255 C319.162703,370.564837 319.38186,371.388436 319.566151,372.22701 C319.750443,373.065583 319.929753,373.889182 320.173815,374.722764 L320.841249,377.218518 C321.060406,378.047109 321.339333,378.895665 321.578414,379.714273 C322.574584,383.093524 323.755045,386.502725 325.065008,390.276305 C326.532167,394.392652 327.784061,398.582894 328.815586,402.82995 C329.966972,407.734163 330.46937,412.768891 330.30984,417.804476 C330.235128,419.067328 330.13053,420.325188 330.025932,421.583048 C330.025932,421.897513 329.981105,422.21697 329.941258,422.521452 L329.801794,423.434898 L329.512905,425.256799 L329.214054,427.068716 C329.094514,427.617782 328.974973,428.226746 328.860414,428.725897 L328.183018,431.5461 C327.860745,432.815507 327.60965,434.102002 327.43091,435.399544 C327.35138,435.963472 327.339674,436.534926 327.396044,437.101649 C327.396044,437.206471 327.445853,437.291326 327.440872,437.396148 C327.477266,437.504077 327.507204,437.614086 327.530527,437.725587 C327.595278,437.845384 327.625163,437.970171 327.694895,438.104942 C327.764627,438.239713 327.814436,438.379475 327.919033,438.524229 C328.318201,439.168665 328.808049,439.752024 329.373441,440.256282 C330.509762,441.297727 331.920336,441.990664 333.437813,442.252886 C333.784898,442.297242 334.134007,442.323898 334.483791,442.33275 C334.649617,442.321149 334.816049,442.321149 334.981876,442.33275 C335.151225,442.33275 335.320574,442.272852 335.479961,442.262869 C336.252109,442.12361 336.999175,441.869569 337.696438,441.509151 C338.594598,441.040797 339.431158,440.462336 340.186862,439.787081 C340.618717,439.386094 341.027789,438.961148 341.412151,438.514246 L341.725944,438.139883 C341.835523,438.010103 341.979967,437.825418 342.079584,437.695638 C342.22901,437.485995 342.378435,437.281343 342.512918,437.0717 C343.073489,436.196846 343.504658,435.245235 343.792996,434.246506 C343.962345,433.69744 344.101808,433.118425 344.291081,432.319784 L344.365793,432.005318 L344.400659,431.780701 L344.475372,431.331465 L344.560046,430.887221 L344.599893,430.462942 C344.709518,429.37423 344.709518,428.277224 344.599893,427.188513 C344.510238,426.035474 344.320966,424.587936 344.101808,422.606308 C343.849575,420.28601 343.749743,417.951611 343.802958,415.618195 C343.832843,414.335378 343.942421,413.007636 344.086866,411.709844 L344.34587,409.758164 L344.5202,408.759862 L344.609855,408.260711 L344.724414,407.701662 C344.809089,407.317316 344.87384,406.977894 344.978438,406.563598 L345.302193,405.340679 L345.710622,404.05287 C345.860048,403.6236 346.019435,403.199322 346.183803,402.775043 C346.348171,402.350765 346.512539,401.986385 346.681888,401.592056 L347.179972,400.593754 L347.947023,399.096301 C348.375376,398.262719 348.709093,397.598849 349.022886,396.929987 C349.33668,396.261124 349.645492,395.557322 349.954305,394.82357 C350.552007,393.361058 351.164651,391.768766 351.697602,390.171484 C351.971548,389.372842 352.260437,388.579192 352.489556,387.790534 C352.718675,387.001876 352.987641,386.208226 353.196837,385.424559 C354.092102,382.203896 354.782507,378.929541 355.263889,375.621236 C355.557759,373.779369 355.821744,371.832681 356.260058,369.591493 L356.409484,368.767894 L356.583813,367.909355 L356.957377,366.182293 L357.405653,364.415299 L357.634772,363.536793 L357.898757,362.653296 L358.44167,360.891293 L359.054314,359.169223 C359.452782,358.006201 359.925962,356.923044 360.3842,355.824912 C360.842438,354.72678 361.355466,353.703521 361.84857,352.650312 C362.341674,351.597104 362.874624,350.588819 363.43746,349.550586 C364.000296,348.512352 364.573094,347.553982 365.046274,346.745358 C365.519455,345.936733 365.947808,345.207973 366.366199,344.459247 C367.19634,342.971777 368.026481,341.417754 368.856623,339.797177 L371.19264,336.552697 C370.340915,337.206584 368.90145,339.612492 369.120608,339.303018 L369.175397,339.208179 L369.284976,339.008519 L369.509114,338.589232 L369.977314,337.715718 L370.89877,335.928758 C371.511415,334.725805 372.099155,333.507876 372.671952,332.29494 C373.812566,329.869067 374.88843,327.428219 375.784982,325.052261 L376.118699,324.163772 L376.442454,323.215385 L377.084984,321.303638 L377.727513,319.396881 C377.941689,318.757968 378.175789,318.124046 378.340157,317.47515 C379.047438,314.89454 379.834412,312.333896 380.387286,309.713354 C382.847825,299.291084 383.729435,288.509425 383.684607,277.298496 L383.63978,273.080672 L383.505297,268.812932 C383.470431,267.395343 383.395718,265.952797 383.325986,264.510251 C383.256254,263.067705 383.196484,261.640134 383.106829,260.182613 L382.050889,242.507681 L381.816789,238.015323 C381.737096,236.51787 381.662383,235.020417 381.607594,233.498007 L381.418321,228.960726 C381.368513,227.463273 381.318704,225.920897 381.288819,224.403478 C381.152676,218.317165 381.152676,212.232516 381.288819,206.149531 C381.424962,200.066545 381.715512,193.998535 382.160468,187.945498 C382.588821,181.885807 383.146676,175.842753 383.834033,169.816339 C384.162769,166.821433 384.556256,163.796579 384.949743,160.791691 L385.587291,156.334274 L385.741697,155.221167 L385.81641,154.677093 L385.87618,154.177942 C385.955874,153.529046 386.05051,152.895124 386.115261,152.226262 C386.424074,149.570779 386.57848,146.910305 386.683078,144.239848 C386.683078,142.92209 386.752809,141.594348 386.683078,140.281581 L386.648212,138.284978 L386.533652,136.323315 C386.242492,131.174699 385.407689,126.071502 384.043228,121.099213 C382.70523,116.284173 380.739089,111.667112 378.195713,107.367573 C378.046287,107.103023 377.901843,106.823498 377.742456,106.56394 L377.244371,105.800239 L376.218316,104.267846 L375.720231,103.499153 L375.590729,103.309476 L375.386514,103.019969 L374.973104,102.420988 L374.345517,101.507542 L373.787662,100.7089 C373.07042,99.7105984 372.368121,98.7821777 371.620993,97.8837062 C370.873866,96.9852346 370.081911,96.1366781 369.260071,95.3030961 C367.581186,93.6130172 365.772569,92.0575488 363.850871,90.65101 C361.85481,89.1966221 359.757503,87.8871697 357.575002,86.7326756 C355.329563,85.5296736 353.018086,84.4547861 350.651624,83.5131525 C349.471163,83.0140016 348.225951,82.5947149 347.010624,82.1404876 C346.392999,81.9258527 345.765412,81.7361754 345.142806,81.5315235 C344.5202,81.3268717 343.902575,81.1172283 343.260045,80.947517 C338.103296,79.4513297 332.849165,78.3155294 327.535508,77.5482995 C322.086095,76.7646931 316.599792,76.2648708 311.09871,76.0508469 L306.92974,75.9260592 C306.252345,75.9011016 305.510199,75.8911186 304.773033,75.8811356 L302.571498,75.8461951 L293.765359,75.7263988 C282.035462,75.5916281 270.355374,75.5367215 258.735055,75.7263988 C247.114737,75.9160762 235.599017,76.3153969 224.257626,77.2238515 C212.916235,78.1323061 201.739212,79.4251068 191.110083,81.7810989 C189.785177,82.0805895 188.45031,82.3551225 187.125404,82.6695875 L183.2254,83.6678893 C181.910457,83.9673798 180.650302,84.371692 179.380186,84.7460551 L177.472521,85.3051041 L176.521179,85.5846286 C176.207386,85.6844588 175.903554,85.794272 175.594741,85.9040852 L171.88899,87.1769199 C171.261404,87.3765802 170.683625,87.6461217 170.080943,87.8857141 L168.292818,88.6144744 L166.504694,89.3382432 L164.786301,90.1269016 L163.07289,90.955492 C162.505073,91.230025 161.922314,91.4895835 161.389363,91.8140315 L158.14185,93.6858473 C157.86667,93.8336863 157.60205,94.0004701 157.349895,94.1849982 L156.582845,94.6841491 L155.043763,95.7123999 C154.545678,96.0618055 153.997785,96.371279 153.524604,96.7506337 L152.075177,97.8737231 C151.092574,98.5867137 150.149774,99.3532318 149.251036,100.169817 C148.359465,100.988425 147.442989,101.777083 146.561379,102.600682 L144.070955,105.211241 C143.861759,105.425876 143.647583,105.635519 143.448349,105.860137 L142.875551,106.558948 L141.705052,107.961562 L140.554476,109.339219 L139.498536,110.836671 L138.442596,112.304175 C138.074992,112.785226 137.732514,113.285047 137.416542,113.801628 L135.488954,116.896363 C135.150256,117.395514 134.88129,117.959554 134.582439,118.498637 L133.735695,120.075954 L132.854085,121.693203 C132.570177,122.242269 132.326115,122.821284 132.057149,123.385324 L130.453316,126.754593 L129.023813,130.248649 C128.789713,130.827664 128.525728,131.426645 128.311552,131.985694 L127.758678,133.617917 C127.36021,134.676117 126.976684,135.724334 126.578217,136.772551 Z M94.9597938,127.323625 C95.6006631,125.613201 96.2548143,123.904441 96.9222479,122.197345 L97.9184175,119.646684 C98.262096,118.83806 98.620717,118.099317 98.9743572,117.325633 L101.131064,112.748419 C101.932981,111.250967 102.754821,109.753514 103.57168,108.256061 C103.995052,107.512327 104.388539,106.758609 104.831834,106.029848 L106.21651,103.843568 L107.611148,101.662278 C108.079347,100.93851 108.522643,100.209749 109.060574,99.5159295 L112.163643,95.3280537 C112.661727,94.6242509 113.249467,93.9653718 113.812303,93.2965096 L115.510772,91.2999061 C120.084563,86.0051502 125.218339,81.2235654 130.821899,77.0391656 C136.329768,72.9204097 142.211402,69.3290616 148.38935,66.3124133 C154.370288,63.3974696 160.552495,60.9169588 166.888219,58.8900398 C173.023014,56.9382581 179.279153,55.3925526 185.616207,54.2629112 L187.957206,53.8236585 C188.739199,53.6739132 189.511231,53.5790745 190.288243,53.4542868 L194.955297,52.7454926 C196.504341,52.5208747 198.048404,52.3611464 199.597448,52.1664776 C201.146491,51.9718087 202.695535,51.7671569 204.234617,51.6673267 C207.312781,51.3927937 210.395926,51.0633541 213.454167,50.8936428 L218.051489,50.5891608 L222.623908,50.3895005 C234.812043,49.8903496 246.860714,49.9153071 258.824711,50.2147976 C270.788707,50.5142882 282.663049,51.0483796 294.492563,51.6623352 L303.358472,52.1265455 L305.57495,52.1914351 C306.312115,52.2313672 307.039319,52.2663077 307.831274,52.3262058 L312.493347,52.6306879 C318.709446,53.1298388 324.945467,53.9085141 331.196431,55.0116376 C337.532489,56.1326391 343.783467,57.6920573 349.904496,59.6786982 C350.676528,59.9132991 351.448559,60.1778491 352.220591,60.4723481 C352.992622,60.7668471 353.759673,61.0114311 354.526723,61.3009386 C356.060824,61.9198857 357.599906,62.4689516 359.119065,63.1577798 C362.202244,64.4686683 365.20885,65.9535249 368.124438,67.6052141 C374.200947,70.9678797 379.761981,75.1908708 384.635949,80.1438841 C385.871199,81.4217103 387.058301,82.7527795 388.197255,84.1370911 C389.322927,85.519739 390.39879,86.962285 391.370056,88.3698905 L392.067374,89.3931498 L392.680019,90.3065959 L393.178103,91.0603137 L393.885384,92.1384796 L395.299945,94.2998029 L396.002244,95.3829603 C396.226382,95.7473404 396.425616,96.1266951 396.639793,96.5010582 C400.070488,102.403188 402.725685,108.724876 404.539418,115.309063 C406.309337,121.731444 407.39459,128.323827 407.776969,134.975608 L407.916432,137.436421 L407.971222,139.887252 C408.035973,141.529459 407.971222,143.151699 407.971222,144.783922 C407.861643,148.033395 407.677352,151.272884 407.318731,154.487415 C407.239037,155.291048 407.124478,156.119639 407.024861,156.933255 L406.875435,158.101268 L406.72601,159.179434 L406.143251,163.50208 C405.78961,166.352232 405.445932,169.207375 405.147081,172.062518 C404.546058,177.779459 404.08284,183.503056 403.757424,189.233308 C403.432009,194.96356 403.246057,200.695475 403.199569,206.429055 C403.166364,212.159307 403.265981,217.884568 403.49842,223.604837 C403.727539,229.310131 404.14095,235.085307 404.594207,240.880449 L406.088461,258.545398 C406.217963,260.042851 406.312599,261.540303 406.427159,263.037756 C406.541718,264.535209 406.651297,266.032661 406.72601,267.580029 L406.989995,272.162234 L407.154363,276.799346 C407.522945,289.18827 406.875435,302.146227 404.165854,314.799702 C403.583095,317.979293 402.701485,321.084011 401.90953,324.213687 C401.720258,325.002346 401.466234,325.761055 401.232134,326.534739 L400.514892,328.835824 L399.79765,331.141901 L399.429068,332.29494 L399.010676,333.48791 C397.889986,336.66251 396.649754,339.657415 395.349753,342.607397 C394.6873,344.069909 394.014886,345.522438 393.312586,346.964984 L392.241704,349.151265 L391.683849,350.239414 L391.39496,350.798463 L391.240553,351.08797 L391.16086,351.237715 C391.34017,351.003115 389.850897,353.493877 388.959325,354.232621 L391.290362,350.98814 C390.39879,352.810041 389.45741,354.666882 388.441317,356.558664 C387.943232,357.497067 387.40032,358.445454 386.947063,359.294011 C386.493805,360.142567 386.065452,360.856353 385.721774,361.520223 C385.378095,362.184094 385.024455,362.867931 384.725604,363.571734 C384.426753,364.275536 384.05319,364.979339 383.809128,365.653193 C383.565067,366.327046 383.251273,367.015875 383.047059,367.684737 L382.70338,368.683039 L382.419472,369.68134 L382.275027,370.180491 L382.150506,370.679642 L381.906444,371.717876 L381.692268,372.816008 L381.58767,373.375057 L381.488053,373.974038 C381.229049,375.516414 380.989968,377.38823 380.691118,379.354884 C380.536711,380.353186 380.397247,381.351488 380.193033,382.44962 L379.924067,384.046902 L379.610274,385.669143 C379.191882,387.835458 378.678855,390.016747 378.116019,392.158104 C377.852034,393.246253 377.508356,394.274504 377.204524,395.332704 C376.900692,396.390904 376.557014,397.414163 376.208354,398.437422 C375.53594,400.498915 374.788813,402.505502 373.942069,404.606927 C373.513716,405.655144 373.055478,406.723327 372.562374,407.79151 C372.06927,408.859692 371.5413,409.922884 371.098004,410.786415 L370.570034,411.844615 L370.435552,412.139114 C370.435552,412.189029 370.390724,412.248927 370.375781,412.288859 C370.370207,412.315358 370.360096,412.34069 370.345896,412.363732 C370.352537,412.393311 370.352537,412.424 370.345896,412.453579 C370.336826,412.512698 370.323509,412.571084 370.30605,412.628282 C370.30605,412.673205 370.271184,412.807976 370.25126,412.897823 L370.221375,413.042577 L370.19149,413.242237 L370.121758,413.651541 L370.01218,414.564987 C369.952409,415.178942 369.89762,415.772932 369.882677,416.411845 C369.832869,417.679688 369.842831,419.072319 369.882677,420.949127 C369.969,423.268687 369.93575,425.591166 369.783061,427.90729 C369.573593,430.667954 369.07271,433.398589 368.288806,436.053432 L367.999917,437.051734 L367.676162,437.990137 L367.342445,438.92355 L367.178077,439.392751 L367.028652,439.767115 C366.615241,440.795365 366.117156,442.028268 365.534397,443.261171 C364.340148,445.821338 362.886398,448.251671 361.196079,450.513833 C360.772707,451.087856 360.334392,451.641914 359.881135,452.185988 L359.318299,452.85485 L358.695693,453.573628 C357.838987,454.571929 356.902588,455.520316 355.936303,456.468703 C353.903431,458.443887 351.648616,460.175888 349.217139,461.629923 C346.579531,463.201667 343.726923,464.378785 340.749698,465.123979 C339.982647,465.288699 339.215597,465.478376 338.433603,465.62313 C337.65161,465.767884 336.869617,465.832773 336.087624,465.917629 C334.518909,466.027457 332.944458,466.027457 331.375742,465.917629 C328.267443,465.692574 325.210231,465.002767 322.305618,463.87111 C319.462566,462.77237 316.78944,461.274972 314.366146,459.423676 C311.911382,457.548847 309.731702,455.337617 307.891044,452.85485 C307.392959,452.235903 306.974568,451.537092 306.536253,450.858247 C306.097939,450.179402 305.704452,449.435667 305.305984,448.711898 C304.907516,447.988129 304.568818,447.184497 304.250044,446.390847 C303.93127,445.597197 303.617476,444.783581 303.393338,443.945007 C302.461603,440.791621 302.042829,437.508413 302.153107,434.221548 C302.260077,431.680451 302.534623,429.149224 302.974947,426.644438 L303.428204,423.829227 C303.497936,423.389974 303.537783,423.04556 303.592572,422.651231 L303.677246,421.603014 L303.766902,420.559789 L303.81671,420.060638 C303.81671,419.890927 303.81671,419.726207 303.81671,419.561487 L303.81671,417.564884 C303.661265,414.898599 303.15893,412.264088 302.322456,409.728215 C301.450807,406.957928 300.160768,403.843226 298.686437,400.41406 C297.212106,396.984893 295.573407,393.256236 294.059229,389.362859 C293.680685,388.364558 293.282217,387.426154 292.928577,386.422861 L291.847733,383.427955 C291.47915,382.429654 291.175318,381.396411 290.851563,380.378144 C290.527808,379.359876 290.179149,378.336616 289.885278,377.303374 L288.983745,374.143749 L288.54543,372.586398 L288.166886,370.964158 L287.414778,367.714686 C287.295238,367.16562 287.150793,366.646503 287.056157,366.067488 L286.762287,364.350409 L286.19447,360.906268 C286.050026,359.713297 285.940447,358.490378 285.820907,357.277441 C285.766117,356.663485 285.701366,356.064504 285.656539,355.445557 L285.601749,353.538801 L285.556922,351.632045 L285.556922,350.673675 L285.596768,349.675373 C285.6665,348.382572 285.696385,347.064814 285.825887,345.786988 C285.955389,344.509162 286.109796,343.216361 286.289106,341.993441 L286.587957,340.221456 L286.737383,339.337959 L286.812095,338.893714 L286.886808,338.499385 L287.48451,335.469539 C288.241599,331.750865 288.480679,329.619491 288.440833,327.223567 C288.405967,326.619594 288.386043,326.015622 288.371101,325.411649 L288.146963,323.454978 L288.102135,322.955827 C288.087268,322.788089 288.062318,322.621403 288.027422,322.456676 L287.833169,321.398476 L287.449644,319.267102 L286.901751,316.995965 L286.637766,315.862893 L286.508264,315.293861 L286.348876,314.739804 C285.940447,313.242351 285.492171,311.789822 284.979143,310.32731 C283.945576,307.366127 282.748321,304.4649 281.392933,301.637093 C280.003276,298.737027 278.404424,295.83696 276.671089,292.82708 C274.937754,289.8172 273.005185,286.717473 270.938133,283.343214 C268.871081,279.968954 266.714374,276.355101 264.567628,272.11731 C263.501727,270.020877 262.450768,267.724783 261.489464,265.253986 C260.455921,262.641109 259.623351,259.952826 258.99904,257.212665 C258.81973,256.508863 258.685247,255.760136 258.545783,255.016401 C258.406319,254.272667 258.276817,253.518949 258.182181,252.760239 L258.037737,251.612192 L257.968005,251.038169 L257.923177,250.623874 C257.87835,250.124723 257.843484,249.910088 257.808618,249.625572 C257.694507,248.718532 257.501172,247.823281 257.230839,246.950123 C256.857323,245.641253 256.231194,244.418535 255.387926,243.351245 L256.732754,244.848698 C256.309382,244.449377 255.507466,243.505982 255.482562,243.471042 L255.482562,243.500991 L255.41283,243.43111 L255.198653,243.206492 C255.039266,243.03678 254.854975,242.857086 254.670683,242.707341 C254.329198,242.386665 253.971782,242.083461 253.599801,241.798886 C253.450376,241.684082 253.266084,241.549311 253.18141,241.499396 C253.148844,241.490537 253.118366,241.475266 253.091755,241.454472 C253.054339,241.419456 253.010306,241.392301 252.962253,241.374608 C252.619203,241.189878 252.266741,241.023267 251.906313,240.875457 C250.692146,240.37275 249.443772,239.957402 248.170677,239.632571 C246.676422,239.238242 245.0178,238.873862 243.274503,238.564389 C239.556922,237.93265 235.80987,237.489505 232.047672,237.236647 C228.137706,236.952131 224.10322,236.827344 220.118541,236.822352 C219.122372,236.822352 218.126202,236.822352 217.194783,236.822352 L213.88252,236.917191 C212.627346,236.942148 211.342287,236.952131 210.072171,236.957123 C208.802055,236.962114 207.526958,236.957123 206.256841,236.892233 C201.155798,236.729464 196.06673,236.299608 191.010466,235.604424 C185.935288,234.894537 180.904733,233.894605 175.943401,232.609519 C170.962928,231.335139 166.062984,229.763334 161.269823,227.902526 L159.466756,227.213698 L157.688593,226.464971 C156.508132,225.965821 155.32269,225.46667 154.14721,224.93757 C151.85602,223.849421 149.385519,222.696382 147.457931,221.698081 C143.333789,219.596655 138.915777,217.260629 134.507727,214.555232 C129.939404,211.774742 125.59155,208.645797 121.502733,205.196153 C117.224708,201.587456 113.313912,197.562953 109.827625,193.181591 L108.527624,191.484478 C108.099271,190.915446 107.650994,190.361389 107.262488,189.757416 L104.886624,186.178504 C103.388132,183.744852 102.021404,181.232154 100.792367,178.651309 C98.3224913,173.522354 96.4152852,168.139952 95.1042384,162.598617 C93.8213846,157.110864 93.121828,151.502434 93.0172631,145.86708 C92.959692,143.049284 93.0461401,140.230382 93.2762672,137.421447 L93.4954245,135.28009 C93.5701372,134.566304 93.6797159,133.832552 93.7793328,133.108783 C93.8789498,132.385015 94.0084518,131.611331 94.1429347,130.857613 L94.3770346,129.664642 L94.52646,128.980806 L94.6011727,128.6314 C94.7207131,128.197139 94.8352726,127.757886 94.9597938,127.323625 Z" id="Shape" fill="#2287FF" fill-rule="nonzero"></path>
            <polygon id="Path" fill="url(#linearGradient-5)" opacity="0.3" style="mix-blend-mode: color-burn;" points="401 5.68624453e-17 1.99991933e-14 0 0 512 96.1403727 512"></polygon>
        </g>
    </g>
</svg>