<?xml version="1.0" encoding="UTF-8"?>
<svg width="1024px" height="1024px" viewBox="0 0 1024 1024" version="1.1" xmlns="http://www.w3.org/2000/svg" xmlns:xlink="http://www.w3.org/1999/xlink">
    <!-- Generator: Sketch 52.5 (67469) - http://www.bohemiancoding.com/sketch -->
    <title>Untitled</title>
    <desc>Created with Sketch.</desc>
    <defs>
        <linearGradient x1="0%" y1="50%" x2="100%" y2="50%" id="linearGradient-1">
            <stop stop-color="#BC81B9" offset="0%"></stop>
            <stop stop-color="#4D2DBF" offset="69%"></stop>
        </linearGradient>
        <polygon id="path-2" points="802.648491 1.11022302e-16 1.74046647e-16 0 4.00307289e-14 1024 192.436222 1024"></polygon>
    </defs>
    <g id="Page-1" stroke="none" stroke-width="1" fill="none" fill-rule="evenodd">
        <g id="apples">
            <rect id="Rectangle" fill="#518DED" x="0" y="0" width="1024" height="1024"></rect>
            <path d="M153.47038,331.030185 C153.47038,331.030185 128.483583,430.897605 246.657371,479.89406 C364.831159,528.890516 453.222201,526.008958 453.222201,526.008958 C453.222201,526.008958 482.047751,524.094567 484.929309,565.403544 C487.810867,606.712522 490.692425,699.909484 510.853359,741.218462 C531.014294,782.527439 552.172308,826.727945 564.695618,916.076183 C571.764907,966.628082 592.414411,971.9126 598.696008,974.734333 C623.064615,985.56261 651.900136,967.445686 657.104888,964.175268 C701.833846,936.067614 726.312132,863.769426 705.961753,825.581305 C701.335307,816.906719 689.719338,801.212697 689.599688,778.718598 C689.598485,771.555562 690.513245,764.421772 692.321714,757.490789 C696.310029,743.332269 703.688413,734.797274 707.796378,723.151392 C713.609348,706.659708 752.046738,616.354275 717.458072,523.157313 C682.869406,429.960351 717.458072,357.911431 717.458072,357.911431 C717.458072,357.911431 730.569659,306.432249 701.076066,261.394197 C677.35556,225.160351 636.804362,209.276884 545.481908,195.586991 C354.960078,166.861149 248.950652,150.917858 190.442064,219.357352 C176.752171,235.370438 155.035794,268.443544 153.47038,331.030185 Z" id="Path" fill="#153768" style="mix-blend-mode: hard-light;"></path>
            <path d="M251.3237,172.893476 C251.3237,172.893476 257.954275,109.47926 207.033457,144.067926 C156.112639,178.656592 176.662434,246.418072 229.32814,214.940292 C281.993846,183.462512 251.3237,172.893476 251.3237,172.893476 Z" id="Path" stroke="#6A8958" fill="#83E046"></path>
            <path d="M221.431276,263.996573 C221.431276,263.996573 212.597157,299.333048 230.285336,338.278948 C249.708432,381.043661 287.597429,399.798715 314.618267,412.910302 C360.812931,435.334606 404.514898,437.448413 431.276495,436.222006 C436.182123,436.032561 501.740058,433.848958 527.993145,452.175268 C532.429606,455.310064 536.450073,458.995493 539.958092,463.143135 C551.44444,477.411334 552.491373,493.843194 552.920117,498.419786 C556.419864,535.311704 593.800351,565.822317 606.762376,622.675755 C619.973671,680.625979 593.132308,677.126232 606.762376,738.127517 C618.31852,789.975618 639.5563,809.219241 632.686426,849.092425 C630.612502,861.186991 626.434742,873.171879 632.686426,885.904576 C639.30847,898.729947 652.259921,907.057779 666.676845,907.760545 C686.249503,908.408647 698.383953,893.671821 701.843817,889.444206 C706.226735,883.966998 709.492368,877.683026 711.455657,870.948393 C717.707342,851.824421 711.535424,842.033106 714.446894,823.088608 C716.321402,810.824537 719.282726,812.360039 726.820643,791.451295 C740.321091,754.050867 732.922765,743.382123 747.350497,714.407011 C751.338812,706.43038 753.133554,704.745316 760.312522,690.477118 C766.271422,679.420426 771.423131,667.947376 775.727361,656.147692 C800.813866,585.026056 788.489971,529.099903 785.389056,456.153612 C783.431218,408.155209 786.038665,360.079358 793.176241,312.574255 C796.456631,288.36518 799.637313,237.105355 769.01702,194.370555 C761.638637,184.080701 734.199026,132.910613 613.412892,128.56335 C402.052113,120.845959 270.427731,123.727517 221.431276,263.996573 Z" id="Path" fill="#DDDDDD"></path>
            <path d="M253.068588,273.458851 C253.258033,272.870574 253.417566,272.262356 253.557157,271.654138 L253.557157,271.783759 L253.557157,272.05297 L253.417566,272.94037 C253.327829,273.608413 253.228121,274.306368 253.148354,275.044206 C253.068588,275.782045 252.978851,276.539825 252.919026,277.327517 L252.749523,279.690594 C252.619903,282.911159 252.580019,286.191548 252.749523,289.481908 C253.056854,296.024172 254.05958,302.515149 255.740759,308.84518 C257.410719,315.052258 259.771953,321.052333 262.780136,326.732775 C264.24617,329.559165 265.856928,332.308103 267.605998,334.968647 C268.549899,336.244907 269.477183,337.531139 270.387848,338.827342 C270.84921,339.475091 271.345145,340.097506 271.873496,340.691879 L273.399026,342.546446 C281.66481,352.287907 292.343525,360.583603 305.30555,367.932074 C311.786563,371.631237 318.796027,375.071159 326.513418,378.680584 C330.621383,380.674742 333.802064,381.970944 337.28187,383.526388 C339.016787,384.254255 340.771646,384.902356 342.516534,385.590341 L345.12888,386.58742 L347.791081,387.504732 C354.859411,390.02091 362.075138,392.10205 369.39778,393.736475 C376.735783,395.45143 384.166308,396.743116 391.65258,397.605141 C399.176081,398.494775 406.740929,398.990667 414.316183,399.090789 C416.210633,399.090789 418.115054,399.090789 420.009503,399.090789 C421.903953,399.090789 423.798403,399.020993 425.732736,398.951198 L432.433106,398.681986 C434.995599,398.60222 437.4185,398.552366 439.911198,398.522454 C449.732425,398.422746 459.443973,398.691957 469.364907,399.340058 C479.586834,399.979247 489.765804,401.180884 499.855579,402.939513 C505.120156,403.886738 510.504382,405.013437 516.107965,406.528997 C522.143312,408.189333 528.051315,410.281959 533.786173,412.790652 C537.150823,414.260104 540.426815,415.924734 543.597429,417.776047 C544.415034,418.214761 545.302434,418.773126 546.189834,419.351431 L548.812152,421.056436 C550.497215,422.193106 551.903096,423.259981 553.358832,424.38668 C556.141738,426.546274 558.804583,428.856292 561.335463,431.306407 C562.57184,432.502902 563.778306,433.719338 564.984771,435.00557 C565.583019,435.6437 566.181266,436.301772 566.809426,436.999727 L567.806504,438.106485 L568.344927,438.734645 L568.663992,439.123505 L568.833496,439.322921 C568.833496,439.322921 567.268082,437.478325 566.470419,436.730516 L569.162532,439.721753 C573.185071,444.800255 576.673345,450.279918 579.572035,456.073846 C582.333378,461.625129 584.56669,467.423731 586.242493,473.393106 C587.816183,479.042634 588.923337,484.811838 589.552795,490.642571 L590.061305,495.847322 C590.061305,496.036767 590.061305,496.226212 590.061305,496.425628 L590.161013,497.033846 C590.211941,497.456877 590.288525,497.876423 590.390341,498.290166 C590.802303,500.327761 591.379184,502.328504 592.115287,504.272639 C593.010059,506.796464 594.041908,509.269574 595.206232,511.680935 C597.71887,517.045219 601.088997,523.077546 604.78816,529.628354 C608.487322,536.179163 612.495579,543.188627 616.444012,550.567011 C620.392444,557.945394 624.241168,565.912055 627.750886,574.147926 C631.314518,582.537686 634.348273,591.142761 636.834275,599.912444 C638.110536,604.339474 639.197352,608.8363 640.164518,613.353067 C641.131685,617.869834 641.819669,622.386602 642.59739,626.903369 C642.906485,629.256475 643.145784,631.679377 643.414995,634.072366 L643.793885,637.66185 C643.863681,638.240156 643.903564,638.878286 643.923505,639.516417 L644.013242,641.410867 C644.11295,643.953418 644.222629,646.476027 644.282454,649.018578 C644.342278,651.56113 644.122921,654.293126 644.013242,656.925414 C644.013242,658.231587 643.823797,659.567673 643.674236,660.913729 L643.22555,664.902045 L642.986251,666.896203 C642.886543,667.544304 642.766894,668.172463 642.657215,668.810594 L641.95926,672.629406 L641.600312,674.533827 C641.470691,675.152016 641.3311,675.700409 641.191509,676.288685 L640.373905,679.75852 L639.955131,681.473496 L639.546329,682.969114 L638.738695,685.960351 C636.604946,693.597975 635.378539,697.925297 634.830146,703.000428 L634.680584,703.927712 L634.680584,704.924791 L634.560935,706.918948 L634.421344,708.913106 C634.421344,709.601091 634.421344,710.318987 634.421344,711.016943 L634.481168,715.264499 L634.88,719.811178 L635.069445,722.094489 C635.069445,722.852269 635.288802,723.679844 635.38851,724.477507 L636.106407,729.303369 L636.455385,731.726271 L636.943953,734.218968 L637.941032,739.204362 C638.260097,740.879455 638.698812,742.524635 639.067731,744.189757 C639.43665,745.854878 639.795599,747.510029 640.274197,749.175151 L641.610282,754.160545 C642.048997,755.825667 642.607361,757.51073 643.085959,759.14594 C645.080117,765.906134 647.433223,772.716183 650.065511,780.254099 C652.99994,788.475721 655.499421,796.846153 657.553574,805.330633 C659.857991,815.12712 660.863697,825.184182 660.54481,835.242999 C660.395248,837.765609 660.185862,840.278247 659.976475,842.790886 C659.91665,843.409075 659.876767,844.047205 659.797001,844.665394 L659.517819,846.490049 L658.939513,850.119416 L658.331295,853.748783 C658.101967,854.84557 657.862668,856.052035 657.623369,857.059085 L656.297254,862.742434 C655.646902,865.280328 655.144196,867.853783 654.791665,870.449854 C654.625492,871.575619 654.598701,872.717574 654.711899,873.849893 C654.711899,874.049309 654.811607,874.218812 654.801636,874.438169 C654.874521,874.650372 654.934456,874.866804 654.98111,875.086271 C655.11073,875.32557 655.170555,875.574839 655.310146,875.844051 C655.444365,876.131185 655.59415,876.410782 655.758832,876.681597 C656.557566,877.972088 657.538138,879.140714 658.670302,880.151431 C660.946286,882.229907 663.769436,883.613804 666.806465,884.139747 C667.474508,884.279338 668.192405,884.229484 668.900331,884.30925 C669.230835,884.265521 669.564048,884.245528 669.89741,884.249426 C670.236417,884.249426 670.575424,884.129776 670.894489,884.109834 C672.441367,883.841512 673.93783,883.337086 675.33149,882.614216 C677.129451,881.678656 678.804097,880.52315 680.316884,879.174294 C681.189619,878.37854 682.012128,877.529391 682.779669,876.631743 L683.407829,875.883934 C683.627186,875.624693 683.916339,875.255774 684.115755,874.996534 C684.31517,874.737293 684.714002,874.178929 684.983213,873.760156 C686.108739,872.013103 686.975226,870.112205 687.555677,868.116689 C687.884713,867.019903 688.173866,865.863291 688.552756,864.267965 L688.702317,863.639805 L688.772113,863.19112 L688.921675,862.293749 L689.091178,861.406349 L689.170944,860.558832 C689.390394,858.384074 689.390394,856.192751 689.170944,854.017994 C688.99147,851.704771 688.61258,848.823213 688.173866,844.86481 C687.677894,840.22926 687.481394,835.566549 687.585589,830.905706 C687.645414,828.333242 687.874742,825.690983 688.163895,823.098578 L688.682376,819.2 L689.031353,817.205842 L689.210828,816.208763 L689.450127,815.092035 C689.61963,814.324284 689.739279,813.646271 689.958637,812.808724 L690.606738,810.365881 L691.424343,807.803389 C691.723466,806.945901 692.052502,806.098384 692.421422,805.250867 C692.790341,804.40335 693.089464,803.675482 693.4185,802.89776 L694.415579,800.903603 L695.951081,797.912366 C696.808569,796.247244 697.476611,794.92113 698.104771,793.595015 C698.732931,792.2689 699.361091,790.843077 699.969309,789.387342 C701.175774,786.465901 702.402181,783.275248 703.469056,780.094567 C704.017449,778.499241 704.605725,776.913885 705.054411,775.3385 C705.503096,773.763116 706.05149,772.17776 706.480234,770.612347 C708.271454,764.102327 709.646874,757.484988 710.598169,750.800389 C711.196417,747.121168 711.724869,743.242532 712.592327,738.755677 L712.891451,737.120467 L713.250399,735.405492 L713.988238,731.955599 L714.895579,728.42594 L715.354236,726.66111 L715.902629,724.876339 L716.989445,721.35665 L718.225823,717.916728 C719.023486,715.593535 719.970711,713.429873 720.897994,711.2363 C721.825278,709.042726 722.842298,706.998715 723.829406,704.894878 C724.816514,702.791042 725.883389,700.776943 727.020058,698.703019 C728.156728,696.629094 729.293398,694.714703 730.240623,693.099435 C731.187848,691.484167 732.045336,690.038403 732.882882,688.542785 C734.54468,685.57149 736.206478,682.467251 737.868277,679.230068 L742.544576,672.759026 C740.839572,674.055229 737.958014,678.87112 738.396728,678.24296 L738.506407,678.053515 L738.715794,677.664654 L739.17445,676.817137 L740.111704,675.08222 L741.966271,671.512678 C743.182707,669.109718 744.369231,666.676845 745.515871,664.253944 C747.799182,659.40814 749.952872,654.532425 751.757585,649.7963 L752.435599,648.0215 L753.073729,646.117079 L754.359961,642.308238 L755.656164,638.489426 C756.084907,637.223135 756.553535,635.956845 756.882571,634.660643 C758.298423,629.505745 759.923661,624.39073 760.990536,619.156066 C765.97593,598.34703 767.710847,576.800156 767.641052,554.415735 L767.561285,545.990419 L767.302045,537.465394 C767.232249,534.63369 767.082687,531.752132 766.943096,528.870574 C766.803505,525.989017 766.683856,523.137371 766.514352,520.21593 L764.430458,484.909367 L763.961831,475.935657 C763.802298,472.944421 763.662707,469.953184 763.553028,466.912093 L763.184109,457.858617 C763.084401,454.867381 762.984693,451.786407 762.924869,448.745316 C762.665628,436.594249 762.692217,424.443181 763.004635,412.292113 C763.317053,400.141045 763.902006,388.009919 764.759494,375.898734 C765.626952,363.804167 766.753651,351.729542 768.12962,339.6948 C768.797663,333.712327 769.585355,327.670029 770.383019,321.667614 L771.659279,312.7637 L771.978345,310.540214 L772.127907,309.453398 L772.247556,308.456319 C772.407089,307.160117 772.596534,305.893827 772.726154,304.557741 C773.354314,299.253281 773.663408,293.948822 773.872795,288.604479 C773.872795,285.96222 774.022356,283.30999 773.872795,280.687673 L773.802999,276.699357 L773.573671,272.780837 C772.990969,262.496203 771.319836,252.302295 768.588277,242.369932 C765.916732,232.749274 761.987574,223.52313 756.902512,214.930321 C756.593418,214.40187 756.314236,213.843505 755.99517,213.325024 L754.998092,211.799494 L752.944109,208.738462 L751.94703,207.20296 L751.69776,206.814099 L751.288958,206.235794 L750.461383,205.04927 L749.205063,203.214645 L748.088335,201.619318 C746.652541,199.625161 745.24666,197.770594 743.751042,195.975852 C742.255424,194.18111 740.680039,192.486076 739.024888,190.820954 C735.640277,187.458877 731.996338,184.368364 728.126816,181.578033 C724.125444,178.673011 719.923941,176.054152 715.553651,173.740993 C711.065216,171.32874 706.44102,169.178106 701.704226,167.299864 C699.35112,166.302785 696.858423,165.455268 694.42555,164.547926 C693.189172,164.119182 691.922882,163.740292 690.676534,163.33149 C689.430185,162.922687 688.193807,162.493944 686.907575,162.154937 C676.587545,159.163376 666.073272,156.887948 655.439766,155.344888 C644.529824,153.789586 633.547718,152.791213 622.536164,152.353651 L614.180643,152.104382 C612.824615,152.054528 611.338968,152.034586 609.863291,152.014645 L605.456203,151.934878 L587.837819,151.685609 C564.356611,151.406426 540.975112,151.276806 517.713262,151.625784 C494.451412,151.974761 471.388978,152.772425 448.685492,154.547225 C425.982006,156.322025 403.607556,158.90446 382.329893,163.59073 C379.677663,164.188978 376.995521,164.737371 374.353262,165.365531 L366.536164,167.359688 C363.903875,167.957936 361.391237,168.76557 358.848685,169.513379 L355.029873,170.630107 L353.115482,171.1785 C352.487322,171.377916 351.879104,171.607244 351.260915,171.816631 L343.842648,174.359182 C342.586329,174.758014 341.419747,175.296436 340.223252,175.765063 L336.643739,177.220798 L333.064226,178.666563 L329.624304,180.301772 L326.194352,181.956923 C325.047712,182.505316 323.88113,183.023797 322.814255,183.671899 L316.30333,187.450828 C315.755477,187.751291 315.22608,188.084244 314.717975,188.447907 L313.182473,189.444985 L310.091529,191.498968 C309.09445,192.196923 307.997663,192.815112 307.040467,193.572892 L304.109056,195.806349 C302.143855,197.236483 300.256673,198.770859 298.455618,200.402882 C296.660876,202.028121 294.836222,203.603505 293.071392,205.238715 L288.085998,210.453437 C287.667225,210.892152 287.238481,211.300954 286.839649,211.759611 L285.693009,213.155521 L283.389757,215.9274 L281.076534,218.679338 L278.962726,221.670574 L276.848919,224.592016 C276.150964,225.589094 275.403155,226.506407 274.794937,227.583252 L270.936241,233.775112 C270.258228,234.772191 269.709834,235.888919 269.121558,236.965764 L267.356728,240.1963 L265.581928,243.426835 C265.023564,244.513651 264.525024,245.680234 263.996573,246.796962 L260.776008,253.537215 L257.914391,260.516767 C257.435794,261.673379 256.917313,262.869873 256.478598,263.986602 L255.37184,267.167283 C254.643973,269.27112 253.866251,271.364985 253.068588,273.458851 Z M189.793963,254.514352 C191.076871,251.084401 192.40631,247.667744 193.782278,244.264382 L195.776436,239.179279 C196.464421,237.564012 197.182317,236.088335 197.890243,234.542863 L202.217566,225.399649 C203.822863,222.408413 205.478014,219.417176 207.113223,216.42594 C207.950769,214.940292 208.748432,213.434703 209.635833,211.968997 L212.417683,207.611762 L215.209503,203.254528 C216.146758,201.808763 217.034158,200.353028 218.111003,198.967089 L224.332775,190.611568 C225.329854,189.195716 226.506407,187.889542 227.623135,186.553457 L231.033145,182.565141 C240.196085,171.991214 250.479693,162.443104 261.703291,154.088569 C272.738037,145.872527 284.518521,138.708764 296.890204,132.691256 C308.867691,126.879714 321.246616,121.934809 333.931685,117.894606 C346.21479,114.011704 358.738099,110.934167 371.42185,108.681597 L376.108121,107.814138 C377.673535,107.515015 379.219007,107.32557 380.77445,107.0763 L390.117079,105.670419 C393.217994,105.221733 396.308939,104.912639 399.409854,104.523778 C402.510769,104.134917 405.611685,103.736086 408.692658,103.526699 C414.854606,102.978306 421.036495,102.330204 427.158559,101.991198 L436.351626,101.39295 L445.50481,101.00409 C469.913301,100.007011 494.032639,100.086777 517.982473,100.704966 C541.932308,101.323155 565.692697,102.4 589.383291,103.696203 L607.121324,104.643427 L611.558325,104.872756 C613.034002,104.952522 614.489737,105.022317 616.085063,105.141967 L625.407751,105.760156 C637.851295,106.757235 650.334722,108.322648 662.838092,110.546134 C675.50392,112.770437 688.000595,115.868787 700.23852,119.818968 C701.783992,120.287595 703.329464,120.875871 704.864966,121.414294 C706.400467,121.952717 707.95591,122.491139 709.491412,123.069445 C712.552444,124.315794 715.643389,125.41258 718.674508,126.788549 C724.845768,129.382565 730.864544,132.325374 736.701694,135.602726 C748.869466,142.341944 759.998985,150.804946 769.744888,160.729114 C772.217644,163.281636 774.610633,165.943836 776.874002,168.705745 C779.137371,171.467653 781.281091,174.349211 783.215424,177.160974 L784.611334,179.214956 L785.837741,181.049581 L786.83482,182.5452 L788.250672,184.69889 L791.082376,189.026212 L792.488257,191.179903 C792.936943,191.917741 793.335774,192.675521 793.764518,193.42333 C800.621091,205.214992 805.926215,217.842728 809.548277,230.993262 C813.07768,243.827181 815.236785,256.999057 815.989406,270.28814 L816.268588,275.203739 L816.378267,280.109367 C816.497916,283.379786 816.378267,286.630263 816.378267,289.88074 C816.158909,296.381694 815.780019,302.842765 815.052152,309.263953 C814.892619,310.86925 814.663291,312.524401 814.473846,314.159611 L814.164752,316.482804 L813.865628,318.636495 L812.699046,327.271198 C811.99112,332.964518 811.293165,338.667809 810.704888,344.3711 C809.488452,355.78433 808.554521,367.217501 807.903096,378.670613 C807.251672,390.123726 806.872782,401.573515 806.766426,413.019981 C806.68666,424.466446 806.876105,435.902941 807.334761,447.329464 C807.783447,458.726076 808.611022,470.262278 809.508393,481.838364 L812.439805,517.124985 C812.689075,520.116222 812.888491,523.107459 813.107848,526.098695 C813.327205,529.089932 813.556534,532.081168 813.706095,535.172113 L814.224576,544.325297 L814.553612,553.58816 C815.261538,578.335657 813.945394,604.219825 808.571139,629.495774 C807.404557,635.847167 805.639727,642.048997 804.044401,648.300682 C803.665511,649.866095 803.157001,651.391626 802.688374,652.927128 L801.24261,657.523661 L799.806816,662.130166 L799.068978,664.433418 L798.231431,666.816436 C795.978033,673.157858 793.495307,679.140331 790.88296,685.023096 C789.556845,687.954508 788.200818,690.846037 786.804907,693.727595 L784.651217,698.044946 L783.534489,700.228549 L782.956183,701.345278 L782.647089,701.923583 L782.487556,702.212736 C782.846504,701.75408 779.865239,706.729503 778.070497,708.195209 L782.746796,701.724167 C780.962025,705.363505 779.067575,709.072639 777.033535,712.841597 C776.036456,714.716105 774.94964,716.610555 773.982473,718.31556 C773.015307,720.020565 772.217644,721.426446 771.529659,722.752561 C770.841675,724.078676 770.133749,725.444674 769.535501,726.850555 C768.937254,728.256436 768.189445,729.652347 767.700876,731.008374 C767.212308,732.364401 766.574177,733.730399 766.165375,735.056514 L765.47739,737.050672 L764.909056,739.04483 L764.619903,740.041908 L764.370633,741.038987 L763.882064,743.102941 L763.45332,745.306485 L763.233963,746.413242 L763.044518,747.609737 C762.516066,750.690711 762.047439,754.429757 761.439221,758.358247 C761.130127,760.352405 760.850944,762.346563 760.442142,764.540136 L759.90372,767.730789 L759.27556,770.971295 C758.438014,775.298617 757.401052,779.655852 756.284323,783.93332 C755.755871,786.096981 755.067887,788.160935 754.459669,790.274742 C753.851451,792.388549 753.153496,794.42259 752.465511,796.476573 C751.109484,800.584537 749.613866,804.592795 747.918832,808.790497 C747.061344,810.884362 746.144031,813.018111 745.156923,815.15186 C744.169815,817.285609 743.102941,819.409387 742.165686,821.134333 L741.108783,823.24814 L740.839572,823.826446 C740.839572,823.936125 740.739864,824.055774 740.719922,824.12557 C740.704569,824.180357 740.684554,824.233729 740.660097,824.285102 C740.670182,824.341153 740.670182,824.398555 740.660097,824.454606 C740.639346,824.572189 740.612724,824.688661 740.580331,824.803583 C740.580331,824.903291 740.510536,825.172502 740.470652,825.342006 L740.410828,825.64113 L740.341032,826.039961 L740.211412,826.857566 L739.982084,828.68222 C739.872405,829.898656 739.762726,831.095151 739.732814,832.371412 C739.623135,834.894021 739.643077,837.675871 739.732814,841.434859 C739.90676,846.065095 739.836868,850.701278 739.523427,855.324167 C739.109744,860.83946 738.106955,866.294636 736.532191,871.596495 L735.953885,873.590652 L735.305784,875.465161 L734.637741,877.339669 L734.298734,878.266952 L733.999611,879.014761 C733.172035,881.068744 732.174956,883.531529 731.008374,885.994314 C728.635571,891.098994 725.745543,895.94689 722.383642,900.461928 C721.536125,901.608569 720.658695,902.715326 719.751353,903.802142 L718.614684,905.138228 L717.368335,906.574021 C715.66333,908.568179 713.788822,910.462629 711.844518,912.347108 C707.774073,916.292856 703.256599,919.74956 698.383953,922.646933 C693.106952,925.79263 687.395613,928.144358 681.433612,929.626485 C679.88814,929.965492 678.352639,930.334411 676.797196,930.623564 C675.241753,930.912717 673.666368,931.032366 672.090983,931.20187 C668.954017,931.421279 665.805555,931.421279 662.668588,931.20187 C656.446547,930.744097 650.327263,929.362973 644.511782,927.103875 C632.995438,922.619593 622.97458,914.983008 615.596495,905.068432 C614.599416,903.832055 613.76187,902.436144 612.88444,901.080117 C612.007011,899.72409 611.219318,898.238442 610.431626,896.792678 C609.643934,895.346913 608.955949,893.741616 608.307848,892.156261 C607.659747,890.570906 607.051529,888.935696 606.602843,887.270574 C604.73872,880.968207 603.907036,874.405649 604.140058,867.837507 C604.354138,862.764837 604.903733,857.711897 605.785239,852.711821 L606.702551,847.088296 C606.842142,846.200896 606.921908,845.522882 607.041558,844.725219 L607.201091,842.631353 L607.380565,840.557429 L607.480273,839.560351 C607.480273,839.221344 607.480273,838.892308 607.480273,838.563272 L607.480273,834.574956 C607.165566,829.246104 606.160077,823.980693 604.489036,818.910847 C602.744148,813.377059 600.171685,807.155287 597.230302,800.305355 C594.288919,793.455424 590.998559,785.997274 587.97741,778.230029 C587.21963,776.235871 586.431938,774.351392 585.714041,772.337293 L583.560351,766.35482 C582.822512,764.360662 582.214294,762.296709 581.566193,760.262668 C580.918092,758.228627 580.220136,756.184615 579.63186,754.110691 L577.877001,747.89889 L577.009542,744.788004 L576.251762,741.547498 L574.746173,735.056514 C574.516845,733.959727 574.227692,732.922765 574.038247,731.766154 L573.449971,728.336203 L572.313301,721.456358 C572.034119,719.07334 571.814761,716.620526 571.575463,714.197624 C571.465784,712.981188 571.336164,711.784693 571.246426,710.548315 L571.136748,706.739474 L571.056981,702.920662 L571.056981,701.016241 L571.136748,699.071938 C571.276339,696.489503 571.346134,693.857215 571.605375,691.304693 C571.864615,688.752171 572.17371,686.169737 572.542629,683.726894 L573.130906,680.187264 L573.44,678.422434 L573.589562,677.535034 L573.739124,676.757313 L574.945589,670.695073 C576.461149,663.266835 576.939747,659.009309 576.869951,654.233301 C576.800156,653.016865 576.760273,651.810399 576.73036,650.603934 L576.291646,646.695385 L576.191938,645.698306 C576.166799,645.363301 576.120173,645.030256 576.052347,644.701227 L575.653515,642.577449 L574.895735,638.319922 L573.798948,633.783213 L573.270497,631.519844 L573.011256,630.383174 L572.692191,629.276417 C571.874586,626.28518 570.987186,623.37371 569.970166,620.46224 C567.901182,614.543864 565.504488,608.745197 562.791198,603.093126 C560.019318,597.300097 556.808724,591.507069 553.358832,585.484713 C549.908939,579.462356 546.020331,573.280467 541.892425,566.540214 C537.764518,559.799961 533.447167,552.58111 529.159727,544.10594 C527.025979,539.918208 524.932113,535.321675 523.007751,530.396105 C520.944742,525.171244 519.27823,519.798407 518.022356,514.323194 C517.663408,512.917313 517.394197,511.411723 517.124985,509.936047 C516.855774,508.46037 516.586563,506.94481 516.397118,505.419279 L516.107965,503.125998 L515.968374,501.979357 L515.878637,501.161753 C515.7889,500.164674 515.729075,499.725959 515.659279,499.167595 C515.422193,497.353958 515.035334,495.563068 514.502668,493.813281 C513.761583,491.199162 512.507477,488.75874 510.813476,486.634314 L513.505589,489.62555 C512.658072,488.817916 511.052775,486.943408 511.012892,486.863642 L511.072717,486.923466 C511.072717,486.923466 511.072717,486.923466 511.072717,486.923466 L510.943096,486.783875 L510.514352,486.33519 C510.185316,486.006154 509.826368,485.637235 509.457449,485.338111 C508.773853,484.697544 508.058371,484.09188 507.313729,483.523427 C507.004635,483.294099 506.635716,483.024888 506.466212,482.92518 C506.402674,482.903356 506.34232,482.873179 506.286738,482.835443 C506.211838,482.765496 506.123692,482.711253 506.027498,482.67591 C505.340093,482.308252 504.634595,481.97547 503.91369,481.678832 C501.483293,480.683413 498.988197,479.853935 496.44557,479.196105 C493.454333,478.408413 490.13406,477.680545 486.644284,477.062356 C479.204127,475.783739 471.702667,474.891818 464.170127,474.390185 C456.343057,473.811879 448.216865,473.56261 440.240234,473.542668 C438.246076,473.542668 436.251918,473.542668 434.387381,473.542668 L427.756806,473.732113 C425.244167,473.781967 422.671704,473.801908 420.139124,473.811879 C417.606543,473.82185 415.044051,473.811879 412.491529,473.672288 C402.27932,473.342082 392.091638,472.473417 381.970944,471.069912 C371.813826,469.656536 361.746586,467.659068 351.819279,465.087439 C341.850834,462.539579 332.045056,459.393073 322.455307,455.665044 L318.845881,454.289075 L315.28631,452.793457 C312.923233,451.796378 310.550185,450.799299 308.197079,449.732425 C303.610516,447.548822 298.665005,445.24557 294.81628,443.241441 C286.560467,439.043739 277.716378,434.37741 268.89223,428.963272 C259.751816,423.404304 251.054661,417.147285 242.878442,410.248101 C234.296135,402.995068 226.453985,394.909103 219.46703,386.108822 L216.864654,382.708783 C216.007167,381.572113 215.109796,380.465355 214.342045,379.25889 L209.585979,372.109834 C206.59315,367.24799 203.863863,362.228764 201.409932,357.073885 C196.481148,346.841049 192.679871,336.102522 190.073145,325.047712 C187.51181,314.084931 186.118106,302.881821 185.915326,291.625628 C185.803273,285.996769 185.979655,280.365865 186.443778,274.755054 L186.882493,270.477585 C187.042025,269.051762 187.261383,267.586056 187.460798,266.140292 C187.660214,264.694528 187.929426,263.149056 188.198637,261.643466 L188.657293,259.260448 L188.956417,257.89445 L189.115949,257.196495 C189.315365,256.24927 189.534722,255.401753 189.793963,254.544265 L189.793963,254.514352 Z" id="Shape" fill="#F21D1D" fill-rule="nonzero"></path>
            <mask id="mask-3" fill="white">
                <use xlink:href="#path-2"></use>
            </mask>
            <use id="Path" fill="url(#linearGradient-1)" opacity="0.3" style="mix-blend-mode: color-burn;" xlink:href="#path-2"></use>
        </g>
    </g>
</svg>