<?xml version="1.0" encoding="UTF-8"?>
<svg width="512px" height="512px" viewBox="0 0 512 512" version="1.1" xmlns="http://www.w3.org/2000/svg" xmlns:xlink="http://www.w3.org/1999/xlink">
    <!-- Generator: Sketch 52.5 (67469) - http://www.bohemiancoding.com/sketch -->
    <title>vector-sunrise</title>
    <desc>Created with Sketch.</desc>
    <defs>
        <linearGradient x1="0%" y1="50%" x2="100%" y2="50%" id="linearGradient-1">
            <stop stop-color="#BC81B9" offset="0%"></stop>
            <stop stop-color="#4D2DBF" offset="69%"></stop>
        </linearGradient>
    </defs>
    <g id="sunrise" stroke="none" stroke-width="1" fill="none" fill-rule="evenodd">
        <g>
            <rect id="Rectangle" fill="#518DED" x="0" y="0" width="512" height="512"></rect>
            <path d="M77.102646,165.109579 C77.102646,165.109579 64.6191807,215.09459 123.659096,239.617986 C182.699012,264.141383 226.859394,262.699123 226.859394,262.699123 C226.859394,262.699123 241.26071,261.740945 242.700344,282.416653 C244.139977,303.092362 245.579611,349.738717 255.652063,370.414426 C265.724516,391.090134 276.295112,413.213092 282.551788,457.933108 C286.083622,483.235025 296.400165,485.879999 299.538467,487.292315 C311.713083,492.712016 326.11938,483.644247 328.719687,482.007358 C351.066385,467.939093 363.295797,431.75286 353.128697,412.639183 C350.817313,408.297434 345.013947,400.442361 344.954169,389.183757 C344.953568,385.598559 345.410585,382.028 346.3141,378.558948 C348.306672,371.472415 351.992931,367.200533 354.04528,361.37161 C356.949455,353.117296 376.152869,307.918191 358.872287,261.271836 C341.591704,214.625481 358.872287,178.564011 358.872287,178.564011 C358.872287,178.564011 365.422868,152.797975 350.687796,130.255814 C338.836973,112.120278 318.577494,104.170386 272.952571,97.3184068 C177.767396,82.9407297 124.804825,74.9608944 95.5737904,109.215798 C88.7342862,117.230566 77.8847307,133.784109 77.102646,165.109579 Z" id="Path" fill="#153768" style="mix-blend-mode: hard-light;"></path>
            <path d="M125.586822,86.7235242 C125.586822,86.7235242 128.882544,54.7750338 103.572393,72.2010265 C78.2622434,89.6270192 88.4765019,123.765689 114.653947,107.906981 C140.831392,92.0482726 125.586822,86.7235242 125.586822,86.7235242 Z" id="Path" stroke="#6A8958" fill="#83E046"></path>
            <path d="M111.103079,131.949765 C111.103079,131.949765 106.685782,149.626668 115.530347,169.10917 C125.242416,190.502014 144.187933,199.884141 157.699078,206.44315 C180.797651,217.660801 202.649808,218.718223 216.031325,218.104719 C218.484271,218.00995 251.265,216.917613 264.392249,226.085263 C266.610598,227.653429 268.62094,229.497048 270.375043,231.571886 C276.118526,238.709485 276.642021,246.929445 276.856404,249.218863 C278.606372,267.67387 297.297619,282.936659 303.77898,311.377321 C310.384982,340.366645 296.96358,338.615913 303.77898,369.131516 C309.557362,395.068282 320.176823,404.694813 316.741701,424.641184 C315.704684,430.691433 313.615691,436.686817 316.741701,443.056288 C320.052901,449.472119 326.528975,453.638077 333.737824,453.989632 C343.524679,454.313842 349.59223,446.941815 351.322255,444.826971 C353.513831,442.087024 355.146736,438.943496 356.128433,435.574528 C359.254443,426.007852 356.168319,421.109793 357.624132,411.632898 C358.561436,405.497855 360.042178,406.265983 363.811339,395.806483 C370.561925,377.097096 366.862564,371.760108 374.076817,357.265446 C376.071082,353.275174 376.968501,352.432229 380.558178,345.294631 C383.537788,339.763573 386.113781,334.024234 388.266011,328.121498 C400.809938,292.543238 394.647659,264.566446 393.097118,228.07541 C392.118147,204.064437 393.42194,180.014721 396.99092,156.250519 C398.631203,144.140044 400.22163,118.497561 384.910661,97.11968 C381.221271,91.9722294 367.500728,66.374636 307.104417,64.1999384 C201.418349,60.3393502 135.602623,61.7808359 111.103079,131.949765 Z" id="Path" fill="#DDDDDD"></path>
            <path d="M126.563721,136.698086 C126.658362,136.403636 126.738059,136.099205 126.807793,135.794774 L126.807793,135.859653 L126.807793,135.994401 L126.738059,136.438571 C126.693229,136.772946 126.643419,137.122293 126.60357,137.491602 C126.563721,137.860912 126.518892,138.240203 126.489006,138.634466 L126.404328,139.817255 C126.339574,141.429241 126.31965,143.071171 126.404328,144.718093 C126.55786,147.992686 127.058786,151.241609 127.898644,154.409974 C128.732897,157.516798 129.912487,160.52001 131.415269,163.363237 C132.147648,164.777928 132.952327,166.153851 133.8261,167.485531 C134.29764,168.124336 134.760879,168.768133 135.215815,169.41692 C135.446295,169.741138 135.694047,170.052674 135.957992,170.350175 L136.720094,171.27844 C140.849389,176.154325 146.184099,180.306563 152.659471,183.984687 C155.897158,185.836226 159.398839,187.558007 163.254177,189.364629 C165.306372,190.362763 166.895328,191.01155 168.633717,191.790095 C169.50042,192.154414 170.377086,192.478808 171.248771,192.823164 L172.553807,193.322231 L173.883749,193.781373 C177.414838,195.040793 181.019562,196.082464 184.677696,196.900542 C188.343505,197.758926 192.055534,198.405453 195.795412,198.836922 C199.553889,199.282209 203.333021,199.530418 207.117351,199.580532 C208.063752,199.580532 209.015134,199.580532 209.961534,199.580532 C210.907935,199.580532 211.854335,199.545597 212.82066,199.510662 L216.167929,199.375914 C217.448061,199.335989 218.658457,199.311035 219.903721,199.296063 C224.810061,199.246157 229.661609,199.380905 234.617759,199.705298 C239.724274,200.025231 244.80933,200.626685 249.849827,201.50693 C252.479824,201.981044 255.169594,202.54499 257.968947,203.303572 C260.983995,204.134618 263.935425,205.182038 266.800359,206.437712 C268.481219,207.173216 270.11779,208.006412 271.701717,208.933048 C272.110164,209.152637 272.553478,209.432115 272.996792,209.721573 L274.306809,210.574978 C275.148608,211.143915 275.850936,211.677917 276.578171,212.241862 C277.968413,213.322802 279.298677,214.479033 280.563015,215.705387 C281.180666,216.304268 281.783374,216.91313 282.386081,217.556926 C282.684945,217.876329 282.983808,218.205713 283.297615,218.55506 L283.79572,219.109025 L284.064697,219.423437 L284.224091,219.618073 L284.308769,219.717886 C284.308769,219.717886 283.526743,218.794612 283.128259,218.420312 L284.473144,219.917513 C286.482663,222.459452 288.225282,225.202183 289.673366,228.102212 C291.052836,230.880791 292.16852,233.783161 293.005692,236.771007 C293.791852,239.59876 294.344947,242.486415 294.659402,245.404867 L294.913436,248.009996 C294.913436,248.104819 294.913436,248.199642 294.913436,248.299455 L294.963247,248.603886 C294.988689,248.815625 295.026947,249.02562 295.077811,249.232711 C295.283613,250.252586 295.571802,251.254017 295.939533,252.227113 C296.38653,253.490361 296.902006,254.728224 297.483661,255.935181 C298.738886,258.620161 300.422483,261.639517 302.270455,264.918387 C304.118427,268.197258 306.120811,271.705699 308.093309,275.398795 C310.065807,279.091891 311.988494,283.079437 313.741826,287.20173 C315.522091,291.40105 317.037649,295.70814 318.279568,300.097622 C318.917143,302.31348 319.460078,304.564272 319.94324,306.825046 C320.426403,309.085819 320.770095,311.346593 321.158617,313.607367 C321.31303,314.785165 321.432576,315.997898 321.567064,317.195659 L321.756344,318.9923 C321.791212,319.281759 321.811136,319.601162 321.821098,319.920565 L321.865927,320.868792 C321.915738,322.141413 321.97053,323.404053 322.000416,324.676674 C322.030302,325.949295 321.920719,327.316738 321.865927,328.634275 C321.865927,329.288053 321.771287,329.956803 321.696572,330.630543 L321.472424,332.626812 L321.352879,333.624946 C321.303068,333.949339 321.243296,334.263751 321.188504,334.583154 L320.83983,336.494581 L320.660512,337.447799 C320.595758,337.757221 320.526023,338.031707 320.456289,338.326157 L320.047842,340.06291 L319.838638,340.921306 L319.634415,341.669906 L319.230949,343.167107 C318.165003,346.989961 317.552333,349.155912 317.278375,351.696163 L317.203659,352.160295 L317.203659,352.659362 L317.143887,353.657496 L317.074152,354.65563 C317.074152,354.999987 317.074152,355.359315 317.074152,355.708662 L317.104038,357.834688 L317.303281,360.110433 L317.397921,361.253297 C317.397921,361.632588 317.507504,362.046813 317.557314,362.446066 L317.915951,364.861551 L318.090288,366.074284 L318.334359,367.321952 L318.832465,369.817287 C318.991858,370.655719 319.211025,371.47918 319.395324,372.312622 C319.579623,373.146064 319.758941,373.974515 319.998032,374.807957 L320.665493,377.303292 C320.88466,378.136734 321.163599,378.980157 321.402689,379.798628 C322.398901,383.182302 323.57443,386.59093 324.889428,390.363876 C326.355366,394.479038 327.604019,398.668683 328.630201,402.915412 C329.781407,407.81884 330.283822,412.852692 330.124518,417.887423 C330.049802,419.150063 329.9452,420.407712 329.840597,421.665361 C329.810711,421.974782 329.790787,422.294185 329.750938,422.603606 L329.611469,423.516899 L329.322568,425.333503 L329.018723,427.150107 C328.904159,427.699081 328.784614,428.302952 328.665068,428.80701 L328.002588,431.651692 C327.677695,432.921982 327.426561,434.210071 327.250449,435.50948 C327.167434,436.072958 327.154051,436.64454 327.2106,437.211299 C327.2106,437.311112 327.260411,437.395953 327.25543,437.505748 C327.29184,437.611962 327.321782,437.720292 327.345089,437.830142 C327.409842,437.949918 327.439729,438.074684 327.509463,438.209433 C327.576515,438.353152 327.651342,438.493098 327.733611,438.628649 C328.132631,439.274577 328.62249,439.859509 329.188079,440.365402 C330.325081,441.40574 331.735427,442.098421 333.25262,442.361671 C333.586351,442.43154 333.944987,442.406586 334.298642,442.446512 C334.46375,442.424624 334.630212,442.414617 334.796748,442.416568 C334.966104,442.416568 335.13546,442.35668 335.294853,442.346698 C336.067619,442.212395 336.8152,441.959915 337.511423,441.598098 C338.409621,441.129823 339.246215,440.551458 340.001951,439.876317 C340.437938,439.478019 340.848835,439.052995 341.232271,438.603696 L341.546078,438.229396 C341.655661,438.099638 341.800112,437.914983 341.899733,437.785226 C341.999354,437.655468 342.198596,437.375991 342.333085,437.166383 C342.895358,436.291932 343.328224,435.340477 343.618197,434.341663 C343.782572,433.79269 343.927023,433.213772 344.116303,432.415265 L344.191018,432.100852 L344.225886,431.876272 L344.300602,431.427112 L344.385279,430.982942 L344.425128,430.558735 C344.534757,429.470206 344.534757,428.373385 344.425128,427.284855 C344.335469,426.12702 344.146189,424.684716 343.927023,422.70342 C343.679252,420.383192 343.581088,418.049369 343.63314,415.716482 C343.663027,414.428888 343.777591,413.106361 343.922041,411.808787 L344.181056,409.857435 L344.355393,408.8593 L344.445052,408.360233 L344.564598,407.801278 C344.649276,407.416997 344.709048,407.077631 344.818631,406.658415 L345.1424,405.435701 L345.550847,404.153099 C345.700278,403.723901 345.864653,403.299694 346.048952,402.875487 C346.233251,402.45128 346.382683,402.086961 346.547057,401.697688 L347.045163,400.699555 L347.812246,399.202353 C348.240617,398.368911 348.574347,397.705153 348.888154,397.041393 C349.20196,396.377634 349.515767,395.663968 349.819611,394.935331 C350.422319,393.473064 351.034989,391.876049 351.567962,390.284026 C351.84192,389.485519 352.135802,388.692002 352.35995,387.903476 C352.584097,387.11495 352.858055,386.321433 353.072241,385.537898 C353.967071,382.279444 354.654183,378.967273 355.129416,375.621436 C355.42828,373.779879 355.692276,371.838508 356.125627,369.592707 L356.275059,368.774236 L356.454377,367.915841 L356.822975,366.189069 L357.276251,364.422372 L357.50538,363.539023 L357.779338,362.645694 L358.322273,360.883987 L358.939924,359.162205 C359.338408,357.99938 359.811609,356.916404 360.274847,355.818457 C360.738085,354.720509 361.246153,353.697422 361.739277,352.64439 C362.232401,351.591359 362.765375,350.583244 363.333215,349.545184 C363.901055,348.507124 364.468895,347.548916 364.942096,346.740427 C365.415296,345.931938 365.843667,345.208291 366.262075,344.459691 C367.092251,342.972471 367.922427,341.418709 368.752603,339.798405 L371.088718,336.55946 C370.236958,337.208247 368.797433,339.618741 369.016599,339.304328 L369.071391,339.209506 L369.175993,339.014869 L369.405122,338.590662 L369.873341,337.722286 L370.799817,335.935626 C371.407506,334.732875 372.000251,333.515151 372.573073,332.302418 C373.713734,329.876952 374.789642,327.436515 375.691213,325.065946 L376.029925,324.177607 L376.348713,323.224389 L376.991269,321.317953 L377.638806,319.406526 C377.852991,318.772711 378.087101,318.138895 378.251476,317.490109 C378.958786,314.909932 379.770698,312.349718 380.303671,309.729616 C382.794199,299.314087 383.660902,288.529249 383.626035,277.325194 L383.586186,273.108077 L383.456679,268.841054 C383.421812,267.423704 383.347096,265.9814 383.277361,264.539096 C383.207626,263.096793 383.147854,261.669461 383.063175,260.207195 L382.022135,242.535231 L381.788026,238.043628 C381.708329,236.546427 381.638594,235.049225 381.583802,233.527071 L381.399503,228.995542 C381.349693,227.498341 381.299882,225.956224 381.269996,224.434069 C381.140488,218.352106 381.153771,212.270143 381.309844,206.188179 C381.465917,200.106215 381.758139,194.034233 382.18651,187.972232 C382.619862,181.918549 383.182721,175.874847 383.870107,169.851108 C384.203837,166.856706 384.597341,163.83236 384.995825,160.827976 L385.6334,156.371308 L385.792794,155.258388 L385.86751,154.714405 L385.927283,154.215338 C386.00698,153.566551 386.10162,152.932736 386.166373,152.263986 C386.48018,149.608949 386.634593,146.953913 386.739195,144.278914 C386.739195,142.956386 386.81391,141.628868 386.739195,140.316322 L386.704327,138.320053 L386.589763,136.35872 C386.298666,131.210961 385.463826,126.108613 384.099235,121.137176 C382.764626,116.321756 380.801756,111.703802 378.261438,107.402851 C378.107026,107.138346 377.967556,106.858868 377.808162,106.599353 L377.310057,105.83578 L376.283959,104.303645 L375.785853,103.535081 L375.661327,103.340445 L375.457104,103.050987 L375.043676,102.457097 L374.416063,101.538813 L373.858185,100.740306 C373.140913,99.742172 372.438584,98.8139072 371.691426,97.9155865 C370.944268,97.0172659 370.157261,96.168852 369.330406,95.3354099 C367.639573,93.6525924 365.819189,92.1057005 363.886112,90.7090586 C361.887167,89.2550104 359.788244,87.9441951 357.605001,86.7863916 C355.362736,85.5789887 353.052651,84.5025337 350.686315,83.5624189 C349.510786,83.0633518 348.265522,82.6391448 347.050144,82.1849937 C346.432493,81.9703948 345.799899,81.7807494 345.177268,81.576132 C344.554635,81.3715142 343.936984,81.1569159 343.294428,80.987233 C338.138904,79.4898695 332.886343,78.3509515 327.574217,77.578605 C322.123994,76.800131 316.637719,76.3004162 311.136734,76.0814037 L306.96261,75.9566373 C306.285186,75.9316839 305.543009,75.9217024 304.805812,75.9117213 L302.604186,75.8717956 L293.802661,75.7470292 C282.072275,75.60729 270.3917,75.5424114 258.770897,75.7170851 C247.150095,75.8917582 235.628913,76.2910123 224.28705,77.1793514 C212.945186,78.0676905 201.767698,79.3602745 191.138125,81.7058892 C189.813165,82.0053298 188.473261,82.2798165 187.153281,82.5942288 L183.248134,83.5923625 C181.933135,83.8918031 180.677909,84.2960474 179.407739,84.6703476 L177.499995,85.2293025 L176.543633,85.5037892 C176.229826,85.6036027 175.925982,85.7183881 175.617156,85.8231924 L171.911251,87.0958133 C171.283638,87.2954403 170.700855,87.5649362 170.103128,87.7994977 L168.314929,88.5281355 L166.52673,89.251783 L164.808266,90.0702527 L163.094782,90.898704 C162.521961,91.1731907 161.939178,91.4327056 161.406205,91.7570995 L158.153576,93.6485636 C157.879888,93.7989541 157.615419,93.9656068 157.361588,94.1476307 L156.594505,94.6466973 L155.050378,95.6747756 C154.552273,96.0241225 154.004356,96.3335441 153.526175,96.712835 L152.061745,97.8307454 C151.08,98.5465691 150.13723,99.314569 149.237486,100.131444 C148.340896,100.944924 147.429363,101.733449 146.547716,102.551919 L144.057188,105.16204 C143.847984,105.381629 143.633799,105.586247 143.434556,105.815818 L142.861735,106.514512 L141.711112,107.901918 L140.555507,109.279343 L139.499523,110.776544 L138.443539,112.238811 C138.094865,112.737877 137.721286,113.197019 137.417442,113.736011 L135.489773,116.835218 C135.151061,117.334285 134.877103,117.89324 134.583221,118.432232 L133.701574,120.049209 L132.814946,121.666186 C132.536007,122.210169 132.286954,122.794078 132.022959,123.353033 L130.414078,126.726726 L128.984514,130.220195 C128.745424,130.799113 128.486409,131.397993 128.267243,131.956949 L127.714345,133.548972 C127.350728,134.602004 126.962206,135.650045 126.563721,136.698086 Z M94.9539432,127.215812 C95.5948389,125.499021 96.2589799,123.788885 96.9463651,122.085403 L97.9425764,119.540161 C98.2862695,118.731673 98.6449051,117.993053 98.99856,117.219499 L101.160338,112.643054 C101.962288,111.145854 102.789144,109.648652 103.606037,108.151452 C104.024445,107.407841 104.42293,106.65425 104.866244,105.920622 L106.255958,103.739699 L107.650653,101.558776 C108.118873,100.835128 108.562187,100.106491 109.100141,99.4127878 L112.208319,95.2306061 C112.706425,94.5219309 113.29419,93.8681527 113.852068,93.1994033 L115.555589,91.2031349 C120.133071,85.9105763 125.270401,81.131469 130.877316,76.9497807 C136.389887,72.8374123 142.275002,69.2517401 148.45546,66.239802 C154.438992,63.3309559 160.623068,60.8558868 166.960082,58.8336475 C173.09629,56.8901419 179.352494,55.3497449 185.688851,54.222268 L188.029947,53.7880795 C188.811973,53.6383597 189.584036,53.543537 190.361081,53.4187701 L195.02833,52.7150856 C196.577438,52.4905052 198.121565,52.3357947 199.670673,52.1411584 C201.219782,51.9465221 202.76889,51.7468956 204.308036,51.6420913 C207.386329,51.3676046 210.474583,51.0432107 213.532951,50.8735283 L218.125484,50.5740878 L222.698093,50.379452 C234.891717,49.8803849 246.94089,49.9203101 258.905386,50.2297317 C270.869881,50.5391533 282.739736,51.0781456 294.574724,51.726933 L303.436022,52.2010462 L305.652592,52.3158321 C306.389788,52.3557573 307.117022,52.3906917 307.913991,52.45058 L312.571278,52.7600016 C318.787635,53.2590687 325.023916,54.0426035 331.270161,55.1555231 C337.597563,56.2688516 343.840463,57.819666 349.9541,59.7968467 C350.726163,60.0314082 351.498227,60.3258575 352.265309,60.5953539 C353.032392,60.8648503 353.809436,61.1343462 354.576519,61.4238052 C356.105703,62.0476392 357.649831,62.5966126 359.164071,63.2853251 C362.247016,64.5837057 365.253785,66.0566674 368.16982,67.6970776 C374.248411,71.0702526 379.808327,75.3062317 384.677038,80.273567 C385.91234,81.5511787 387.107793,82.8836873 388.238492,84.2661033 C389.369192,85.6485187 390.440119,87.0908225 391.406444,88.4981918 L392.103791,89.5262697 L392.716461,90.4445529 L393.214567,91.1931538 L393.921877,92.2711384 L395.336497,94.4370892 L396.038825,95.5150743 C396.262973,95.8843837 396.462215,96.2636747 396.6764,96.6379749 C400.101703,102.540045 402.751957,108.860595 404.561412,115.442821 C406.324577,121.866571 407.40319,128.459479 407.779173,135.111052 L407.918643,137.571453 L407.973434,140.026863 C408.033207,141.663803 407.973434,143.290761 407.973434,144.91772 C407.863851,148.171636 407.674571,151.405591 407.310954,154.619583 C407.231257,155.42308 407.116693,156.251532 407.022053,157.070002 L406.86764,158.232828 L406.718208,159.310813 L406.135425,163.632733 C405.78177,166.482406 405.433096,169.337069 405.139214,172.191733 C404.531525,177.904387 404.064966,183.627022 403.739537,189.359639 C403.414108,195.092255 403.224828,200.823208 403.171697,206.552498 C403.131848,212.281788 403.226488,218.006087 403.455617,223.725394 C403.679765,229.429731 404.093192,235.203936 404.541487,240.998104 L406.005917,258.660087 C406.130444,260.157288 406.230065,261.654489 406.339648,263.15169 C406.449231,264.648891 406.563796,266.146092 406.638511,267.6932 L406.897526,272.274635 L407.061901,276.910968 C407.415556,289.297812 406.758057,302.253592 404.073268,314.904941 C403.490484,318.083998 402.608837,321.188195 401.811869,324.317346 C401.622588,325.10088 401.368555,325.864453 401.134445,326.633017 L400.412192,328.933715 L399.69492,331.239405 L399.326322,332.39225 L398.907913,333.58502 C397.782195,336.759087 396.541912,339.753489 395.236875,342.697984 C394.574395,344.165241 393.896972,345.612536 393.199623,347.054839 L392.123716,349.215799 L391.565838,350.308756 L391.276936,350.867712 L391.122524,351.15717 L391.042827,351.3019 C391.222144,351.072329 389.732809,353.562673 388.836219,354.296302 L391.172334,351.057357 C390.280725,352.878951 389.334324,354.735481 388.318189,356.621954 C387.820084,357.5602 387.277149,358.508428 386.793986,359.361832 C386.310824,360.215237 385.91234,360.918922 385.568647,361.582681 C385.224954,362.24644 384.871299,362.930162 384.572435,363.633846 C384.273572,364.337531 383.899993,365.036225 383.655921,365.714956 C383.41185,366.393687 383.093062,367.077409 382.888839,367.741168 L382.545146,368.739302 L382.261226,369.737436 L382.116775,370.236503 L381.992249,370.73557 L381.748177,371.768639 L381.533991,372.871577 L381.424408,373.425541 L381.329768,374.024422 C381.065772,375.566539 380.831663,377.43804 380.527818,379.404364 C380.373406,380.402498 380.233936,381.400633 380.029713,382.49858 L379.760736,384.095595 L379.446929,385.717562 C379.028521,387.883513 378.510491,390.064436 377.952613,392.205434 C377.688617,393.288409 377.344924,394.321478 377.04108,395.3795 C376.737235,396.437522 376.388561,397.455619 376.044868,398.483697 C375.367445,400.539853 374.620287,402.546103 373.773507,404.647175 C373.345137,405.695215 372.886879,406.763219 372.393755,407.831223 C371.90063,408.899226 371.367658,409.962239 370.899438,410.825625 L370.371446,411.883647 L370.236958,412.173106 C370.236958,412.228003 370.187147,412.287891 370.177185,412.322826 C370.169515,412.350248 370.159516,412.376963 370.147299,412.402676 C370.152337,412.430732 370.152337,412.459463 370.147299,412.487518 C370.136932,412.546372 370.123633,412.604669 370.10745,412.662191 C370.10745,412.712098 370.072583,412.846846 370.052658,412.931688 L370.022773,413.081408 L369.987905,413.281034 L369.923151,413.69027 L369.808587,414.603562 C369.753795,415.212424 369.699004,415.811304 369.684061,416.45011 C369.629269,417.71275 369.639231,419.105147 369.684061,420.98663 C369.770958,423.304198 369.736042,425.624742 369.579458,427.938633 C369.372797,430.699198 368.871839,433.429672 368.085142,436.083407 L367.79624,437.081541 L367.472472,438.019787 L367.138741,438.958033 L366.969385,439.422165 L366.819954,439.796466 C366.406526,440.824544 365.90842,442.05724 365.325637,443.289935 C364.140268,445.844976 362.696512,448.27149 361.017024,450.531398 C360.593634,451.105325 360.155301,451.659289 359.702025,452.203272 L359.134185,452.872022 L358.511553,453.590678 C357.659792,454.588813 356.723354,455.53704 355.752048,456.480277 C353.718597,458.455239 351.461826,460.18542 349.027623,461.635639 C346.391419,463.210152 343.538235,464.387261 340.559829,465.129108 C339.787765,465.298791 339.020683,465.483446 338.243638,465.628176 C337.466594,465.772905 336.679587,465.832793 335.89258,465.917635 C334.325462,466.027455 332.752601,466.027455 331.185482,465.917635 C328.077169,465.688506 325.02019,464.997213 322.11498,463.866469 C316.36182,461.621955 311.355751,457.799621 307.669919,452.837087 C307.171814,452.218245 306.753405,451.51955 306.315072,450.840819 C305.876739,450.162088 305.483236,449.418478 305.089732,448.694831 C304.696229,447.971184 304.352536,447.167686 304.028768,446.374169 C303.704999,445.580653 303.401155,444.762183 303.177007,443.928741 C302.245757,440.774222 301.830277,437.489471 301.946686,434.201924 C302.053633,431.662905 302.328191,429.133761 302.768561,426.631078 L303.226818,423.81634 C303.296552,423.37217 303.336401,423.032804 303.396174,422.633551 L303.475871,421.58551 L303.56553,420.54745 L303.61534,420.048384 C303.61534,419.878701 303.61534,419.714009 303.61534,419.549317 L303.61534,417.553048 C303.458124,414.885802 302.955817,412.250311 302.121023,409.712705 C301.249339,406.942883 299.964227,403.828705 298.494815,400.400114 C297.025404,396.971524 295.381655,393.238503 293.872396,389.35077 C293.493835,388.352636 293.100332,387.409399 292.741696,386.401284 L291.665788,383.406882 C291.29719,382.408748 290.993345,381.375679 290.669577,380.357582 C290.345808,379.339486 289.997134,378.316398 289.703252,377.278339 L288.826586,374.169151 L288.393234,372.612062 L288.014674,370.990094 L287.262535,367.741168 C287.14797,367.192194 287.00352,366.673164 286.90888,366.094247 L286.614998,364.377456 L286.047157,360.933893 C285.907688,359.741123 285.798104,358.513419 285.678559,357.300685 C285.623768,356.691824 285.559014,356.092943 285.514184,355.4741 L285.459393,353.567664 L285.419544,351.656237 L285.419544,350.703019 L285.459393,349.729839 C285.529128,348.437255 285.563995,347.119718 285.693502,345.842106 C285.82301,344.564495 285.977423,343.271911 286.161722,342.049197 L286.455604,340.277509 L286.610017,339.39416 L286.684732,338.949991 L286.759448,338.560719 L287.362156,335.526391 C288.119276,331.808341 288.358367,329.677326 288.323499,327.286794 C288.288632,326.677933 288.268708,326.074061 288.253765,325.47019 L288.034599,323.513848 L287.984788,323.014781 C287.972229,322.847101 287.948937,322.680402 287.915053,322.515714 L287.715811,321.452701 L287.337251,319.321684 L286.789334,317.050929 L286.525339,315.918047 L286.395831,315.349111 L286.236437,314.795147 C285.827991,313.297945 285.384677,311.84067 284.876609,310.383394 C283.843018,307.421074 282.645714,304.518673 281.290249,301.689646 C279.905516,298.790067 278.301616,295.890487 276.578171,292.876123 C274.854726,289.861757 272.912114,286.767542 270.849957,283.393849 C268.7878,280.020156 266.631003,276.40691 264.489149,272.164841 C263.423203,270.068759 262.377181,267.76806 261.415838,265.302669 C260.385231,262.687474 259.5527,259.998212 258.92531,257.257709 C258.745992,256.554024 258.611504,255.800432 258.477015,255.061814 C258.342526,254.323194 258.208038,253.564612 258.113398,252.80104 L257.968947,251.653186 L257.899213,251.079258 L257.854383,250.670024 C257.809554,250.170957 257.779667,249.951367 257.7448,249.67189 C257.62636,248.764111 257.433099,247.867719 257.166997,246.991899 C256.796777,245.683457 256.17027,244.461954 255.324007,243.398617 L256.668892,244.895818 C256.245502,244.491574 255.443552,243.553328 255.423628,243.513403 L255.453514,243.543346 C255.453514,243.543346 255.453514,243.543346 255.453514,243.543346 L255.38876,243.473477 L255.174575,243.248897 C255.0102,243.084205 254.830882,242.89955 254.646583,242.74983 C254.305083,242.429207 253.947653,242.126055 253.575656,241.841528 C253.421244,241.726742 253.236945,241.591994 253.152266,241.542088 C253.120525,241.531164 253.090374,241.516059 253.062608,241.497172 C253.02519,241.462161 252.981156,241.435011 252.9331,241.417321 C252.589697,241.233297 252.237255,241.06673 251.877116,240.918254 C250.662975,240.420018 249.416513,240.00484 248.146306,239.675577 C246.651989,239.281314 244.993297,238.916995 243.249928,238.607573 C239.533087,237.967588 235.785621,237.521156 232.022629,237.270074 C228.1125,236.980615 224.05294,236.855848 220.068096,236.845867 C219.071885,236.845867 218.075673,236.845867 217.144216,236.845867 L213.831814,236.94069 C212.576588,236.965643 211.291476,236.975624 210.026288,236.980615 C208.7611,236.985606 207.480969,236.980615 206.205818,236.910745 C201.104158,236.745468 196.01475,236.310676 190.958807,235.60818 C185.884668,234.900745 180.855429,233.900954 175.896095,232.613778 C170.916211,231.3385 166.017589,229.763582 161.226887,227.897595 L159.423745,227.208882 L157.645508,226.460282 C156.464998,225.961215 155.279507,225.462148 154.103978,224.928146 C151.812692,223.835189 149.342088,222.682345 147.419401,221.67922 C143.295087,219.578147 138.876891,217.242514 134.468657,214.53258 C129.902427,211.750155 125.557634,208.618334 121.473083,205.165092 C117.185664,201.534737 113.268001,197.487476 109.777564,193.082679 L108.477509,191.38086 C108.049138,190.811924 107.600843,190.257959 107.217302,189.654088 L104.841339,186.075777 C103.346226,183.642283 101.982771,181.130014 100.756873,178.549847 C98.2946257,173.428014 96.3956414,168.053068 95.0934127,162.519814 C93.8138598,157.032623 93.1176142,151.425139 93.0163125,145.791087 C92.9603347,142.973679 93.048449,140.155247 93.2803085,137.346873 L93.4994751,135.205875 C93.5791717,134.492209 93.6887552,133.758581 93.788376,133.034934 C93.8879972,132.311286 94.022486,131.537733 94.1569744,130.784141 L94.3861028,129.591371 L94.5355346,128.907649 L94.6152312,128.558302 C94.7148524,128.084189 94.8244355,127.659982 94.9539432,127.230784 L94.9539432,127.215812 Z" id="Shape" fill="#F21D1D" fill-rule="nonzero"></path>
            <g id="Path" opacity="0.3" style="mix-blend-mode: color-burn;" fill="url(#linearGradient-1)">
                <polygon id="path-2" points="401.824027 5.5511151e-17 1.74046647e-16 0 2.01272051e-14 512 96.3379343 512"></polygon>
            </g>
        </g>
    </g>
</svg>