<?xml version="1.0" encoding="UTF-8"?>
<svg width="1027px" height="1027px" viewBox="0 0 1027 1027" version="1.1" xmlns="http://www.w3.org/2000/svg" xmlns:xlink="http://www.w3.org/1999/xlink">
    <!-- Generator: Sketch 52.5 (67469) - http://www.bohemiancoding.com/sketch -->
    <title>tiime-4</title>
    <desc>Created with Sketch.</desc>
    <defs>
        <linearGradient x1="0%" y1="50%" x2="100%" y2="50%" id="linearGradient-1">
            <stop stop-color="#FFAB72" offset="32%"></stop>
            <stop stop-color="#65FF58" offset="100%"></stop>
        </linearGradient>
        <linearGradient x1="11.8289245%" y1="2.27212184%" x2="116.517983%" y2="77.5560353%" id="linearGradient-2">
            <stop stop-color="#A455FF" offset="0%"></stop>
            <stop stop-color="#63006A" offset="64%"></stop>
        </linearGradient>
        <linearGradient x1="0.00447582246%" y1="50.00319%" x2="99.9821488%" y2="50.00319%" id="linearGradient-3">
            <stop stop-color="#FF4F15" offset="32%"></stop>
            <stop stop-color="#F7CC15" offset="100%"></stop>
        </linearGradient>
        <linearGradient x1="-4.87950549%" y1="28.3243611%" x2="104.15606%" y2="57.5079844%" id="linearGradient-4">
            <stop stop-color="#94F1FF" offset="0%"></stop>
            <stop stop-color="#B9CFCB" offset="13%"></stop>
            <stop stop-color="#D7B3A1" offset="26%"></stop>
            <stop stop-color="#ED9F83" offset="38%"></stop>
            <stop stop-color="#FA9371" offset="48%"></stop>
            <stop stop-color="#FF8F6A" offset="55%"></stop>
            <stop stop-color="#94F1FF" offset="100%"></stop>
        </linearGradient>
        <linearGradient x1="0%" y1="50%" x2="100%" y2="50%" id="linearGradient-5">
            <stop stop-color="#BC81B9" offset="0%"></stop>
            <stop stop-color="#4D2DBF" offset="69%"></stop>
        </linearGradient>
    </defs>
    <g id="Page-1" stroke="none" stroke-width="1" fill="none" fill-rule="evenodd">
        <g id="tiime-4">
            <rect id="Rectangle" fill="#2370CC" x="0" y="0" width="1027" height="1027"></rect>
            <polygon id="Path" fill="url(#linearGradient-1)" opacity="0.31" points="1027 0 805 0 193 1027 1027 1027"></polygon>
            <path d="M153.92,332 C153.92,332 128.86,432.16 247.38,481.3 C365.9,530.44 454.55,527.55 454.55,527.55 C454.55,527.55 483.46,525.63 486.35,567.06 C489.24,608.49 492.13,701.96 512.35,743.39 C532.57,784.82 553.79,829.15 566.35,918.76 C573.44,969.46 594.15,974.76 600.45,977.59 C624.89,988.45 653.81,970.28 659.03,967 C703.89,938.81 728.44,866.3 708.03,828 C703.39,819.3 691.74,803.56 691.62,781 C691.618793,773.815978 692.536233,766.661289 694.35,759.71 C698.35,745.51 705.75,736.95 709.87,725.27 C715.7,708.73 754.25,618.16 719.56,524.69 C684.87,431.22 719.56,358.96 719.56,358.96 C719.56,358.96 732.71,307.33 703.13,262.16 C679.34,225.82 638.67,209.89 547.08,196.16 C356,167.35 249.68,151.36 191,220 C177.27,236.06 155.49,269.23 153.92,332 Z" id="Path" fill="url(#linearGradient-2)" style="mix-blend-mode: hard-light;"></path>
            <path d="M252.06,173.4 C252.06,173.4 258.71,109.8 207.64,144.49 C156.57,179.18 177.18,247.14 230,215.57 C282.82,184 252.06,173.4 252.06,173.4 Z" id="Path" fill="url(#linearGradient-3)"></path>
            <path d="M221.89,265 C221.89,265 213.05,300.44 230.83,339.49 C250.34,382.37 288.35,401.15 315.47,414.28 C361.81,436.73 405.64,438.81 432.47,437.57 C437.39,437.37 503.14,435.14 529.47,453.49 C533.9177,456.63616 537.949685,460.332147 541.47,464.49 C553,478.78 554.07,495.27 554.47,499.86 C558.02,536.86 595.47,567.42 608.56,624.43 C621.85,682.54 594.93,679.06 608.56,740.23 C620.19,792.23 641.5,811.5 634.67,851.5 C632.59,863.62 628.41,875.65 634.67,888.42 C641.324258,901.271462 654.314894,909.610612 668.77,910.31 C688.4,910.95 700.56,896.16 704.03,891.92 C708.42226,886.422237 711.693972,880.116633 713.66,873.36 C719.91,854.17 713.72,844.36 716.66,825.36 C718.53,813.06 721.5,814.6 729.05,793.62 C742.56,756.1 735.13,745.41 749.58,716.34 C753.58,708.34 755.37,706.64 762.58,692.34 C768.567441,681.24388 773.747522,669.730733 778.08,657.89 C803.18,586.55 790.78,530.47 787.61,457.31 C785.60935,409.174121 788.190972,360.957061 795.32,313.31 C798.59,289.03 801.74,237.62 770.99,194.79 C763.58,184.47 735.99,133.17 614.89,128.86 C402.93,121.28 270.92,124.27 221.89,265 Z" id="Path" fill="url(#linearGradient-4)"></path>
            <path d="M253.63,274.45 C253.81,273.86 253.98,273.25 254.11,272.65 L254.11,272.77 L254.06,273.04 L253.93,273.93 C253.84,274.6 253.74,275.3 253.66,276.04 C253.58,276.78 253.49,277.54 253.43,278.33 L253.26,280.7 C253.13,283.93 253.09,287.22 253.26,290.52 C253.568383,297.081415 254.574044,303.591393 256.26,309.94 C257.942659,316.164153 260.313972,322.181316 263.33,327.88 C264.807526,330.709464 266.426232,333.462933 268.18,336.13 C269.126667,337.41 270.06,338.7 270.98,340 C271.439586,340.651998 271.937112,341.276409 272.47,341.87 L273.99,343.72 C282.29,353.49 292.99,361.81 305.99,369.16 C312.5,372.87 319.53,376.32 327.28,379.93 C331.4,381.93 334.59,383.22 338.08,384.78 C339.82,385.5 341.58,386.15 343.33,386.85 L345.95,387.85 L348.62,388.77 C355.7237,391.284792 362.973746,393.365298 370.33,395 C377.69085,396.708551 385.14287,397.997296 392.65,398.86 C400.195889,399.745592 407.7829,400.236261 415.38,400.33 C417.28,400.33 419.19,400.33 421.09,400.33 C422.99,400.33 424.89,400.26 426.83,400.2 L433.55,399.92 C436.12,399.83 438.55,399.78 441.05,399.75 C450.9,399.65 460.64,399.9 470.59,400.55 C480.841361,401.180648 491.050174,402.375794 501.17,404.13 C506.46,405.08 511.86,406.2 517.47,407.73 C523.544046,409.355752 529.492833,411.417776 535.27,413.9 C538.643969,415.363109 541.932546,417.015745 545.12,418.85 C545.94,419.29 546.83,419.85 547.72,420.43 L550.35,422.14 C552.04,423.28 553.45,424.34 554.91,425.47 C557.696342,427.641663 560.366687,429.958188 562.91,432.41 C564.15,433.6 565.35,434.83 566.56,436.11 C567.17,436.76 567.77,437.41 568.4,438.11 L569.4,439.22 L569.94,439.86 L570.26,440.24 L570.43,440.45 C570.43,440.45 568.86,438.6 568.06,437.85 L570.76,440.85 C574.797159,445.936247 578.299017,451.425283 581.21,457.23 C583.991161,462.793526 586.234677,468.609927 587.91,474.6 C589.494609,480.262221 590.611694,486.044977 591.25,491.89 L591.76,497.12 C591.76,497.31 591.76,497.49 591.76,497.69 L591.87,498.31 C591.94,498.72 591.97,499.12 592.09,499.57 C592.508373,501.613373 593.090245,503.619828 593.83,505.57 C594.735593,508.096252 595.7737,510.57302 596.94,512.99 C599.46,518.37 602.85,524.42 606.56,530.99 C610.27,537.56 614.3,544.59 618.26,551.99 C622.22,559.39 626.1,567.37 629.62,575.63 C633.203962,584.040339 636.256628,592.667292 638.76,601.46 C640.03,605.9 641.13,610.46 642.11,614.94 C643.09,619.42 643.77,624 644.55,628.53 C644.86,630.89 645.11,633.32 645.38,635.71 L645.76,639.31 C645.834911,639.927388 645.8783,640.548194 645.89,641.17 L645.98,643.08 C646.09,645.63 646.2,648.15 646.26,650.71 C646.32,653.27 646.11,656 646,658.64 C646,659.95 645.8,661.29 645.66,662.64 L645.21,666.64 L644.97,668.64 C644.88,669.29 644.75,669.93 644.64,670.57 L643.95,674.4 L643.59,676.31 C643.46,676.93 643.32,677.48 643.18,678.07 L642.36,681.55 L641.94,683.27 L641.54,684.77 L640.73,687.77 C638.59,695.43 637.37,699.77 636.82,704.86 L636.67,705.79 L636.67,706.79 L636.56,708.79 L636.42,710.79 C636.42,711.47 636.42,712.19 636.42,712.89 L636.48,717.15 L636.88,721.71 L637.07,724 C637.12,724.76 637.3,725.6 637.4,726.39 L638.12,731.23 L638.47,733.66 L638.96,736.16 L639.96,741.16 C640.28,742.83 640.72,744.48 641.09,746.16 C641.46,747.84 641.82,749.49 642.31,751.16 L643.65,756.16 C644.09,757.82 644.65,759.52 645.13,761.16 C647.13,767.93 649.5,774.76 652.13,782.32 C655.075602,790.566698 657.589017,798.961438 659.66,807.47 C661.971627,817.295111 662.980286,827.381698 662.66,837.47 C662.51,840 662.3,842.52 662.09,845.04 C662.09,845.67 662,846.31 661.92,846.92 L661.64,848.75 L661.06,852.4 L660.46,856.03 C660.22,857.13 659.98,858.35 659.75,859.35 L658.39,865 C657.742975,867.543134 657.238853,870.120501 656.88,872.72 C656.720327,873.849773 656.696825,874.994626 656.81,876.13 C656.81,876.34 656.91,876.51 656.9,876.72 C656.973068,876.936226 657.033175,877.156617 657.08,877.38 C657.21,877.62 657.27,877.87 657.41,878.14 C657.55,878.41 657.65,878.69 657.86,878.98 C658.661405,880.271065 659.644867,881.439768 660.78,882.45 C663.06138,884.536432 665.893376,885.924665 668.94,886.45 C669.636839,886.538863 670.337742,886.592265 671.04,886.61 C671.372928,886.586759 671.707072,886.586759 672.04,886.61 C672.38,886.61 672.72,886.49 673.04,886.47 C674.590234,886.191008 676.090111,885.682062 677.49,884.96 C679.293228,884.021699 680.972781,882.862808 682.49,881.51 C683.357031,880.706662 684.178321,879.855325 684.95,878.96 L685.58,878.21 C685.8,877.95 686.09,877.58 686.29,877.32 C686.59,876.9 686.89,876.49 687.16,876.07 C688.285454,874.317316 689.151107,872.410857 689.73,870.41 C690.07,869.31 690.35,868.15 690.73,866.55 L690.88,865.92 L690.95,865.47 L691.1,864.57 L691.27,863.68 L691.35,862.83 C691.570093,860.648872 691.570093,858.451128 691.35,856.27 C691.17,853.96 690.79,851.06 690.35,847.09 C689.843593,842.441511 689.643162,837.764771 689.75,833.09 C689.81,830.52 690.03,827.86 690.32,825.26 L690.84,821.35 L691.19,819.35 L691.37,818.35 L691.6,817.23 C691.77,816.46 691.9,815.78 692.11,814.95 L692.76,812.5 L693.58,809.92 C693.88,809.06 694.2,808.21 694.53,807.36 C694.86,806.51 695.19,805.78 695.53,804.99 L696.53,802.99 L698.07,799.99 C698.93,798.32 699.6,796.99 700.23,795.65 C700.86,794.31 701.48,792.9 702.1,791.43 C703.3,788.5 704.53,785.31 705.6,782.11 C706.15,780.51 706.73,778.92 707.19,777.34 C707.65,775.76 708.19,774.17 708.61,772.6 C710.407416,766.147717 711.793535,759.587866 712.76,752.96 C713.35,749.27 713.88,745.37 714.76,740.88 L715.06,739.23 L715.41,737.51 L716.16,734.05 L717.06,730.51 L717.52,728.75 L718.05,726.98 L719.14,723.45 L720.37,720 C721.17,717.67 722.12,715.5 723.04,713.3 C723.96,711.1 724.99,709.05 725.98,706.94 C726.97,704.83 728.04,702.81 729.17,700.73 C730.3,698.65 731.45,696.73 732.4,695.11 C733.35,693.49 734.21,692.03 735.05,690.53 C736.716667,687.55 738.383333,684.436667 740.05,681.19 L744.74,674.69 C743.03,676 740.14,680.82 740.58,680.2 L740.69,680.01 L740.91,679.61 L741.36,678.77 L742.3,677.02 L744.15,673.44 C745.38,671.03 746.56,668.59 747.71,666.16 C750,661.3 752.16,656.41 753.96,651.65 L754.63,649.87 L755.28,647.97 L756.57,644.14 L757.86,640.32 C758.29,639.04 758.76,637.77 759.09,636.47 C760.51,631.3 762.09,626.17 763.2,620.92 C768.14,600.04 769.91,578.44 769.82,555.98 L769.73,547.53 L769.46,538.98 C769.39,536.14 769.24,533.25 769.1,530.36 C768.96,527.47 768.84,524.61 768.66,521.69 L766.54,486.28 L766.07,477.28 C765.91,474.28 765.76,471.28 765.65,468.23 L765.27,459.14 C765.17,456.14 765.07,453.05 765.01,450.01 C764.736667,437.816667 764.736667,425.626667 765.01,413.44 C765.283333,401.253333 765.866667,389.096667 766.76,376.97 C767.62,364.83 768.74,352.723333 770.12,340.65 C770.78,334.65 771.57,328.59 772.36,322.57 L773.64,313.64 L773.95,311.41 L774.1,310.32 L774.22,309.32 C774.38,308.02 774.57,306.75 774.7,305.41 C775.32,300.09 775.63,294.76 775.84,289.41 C775.84,286.77 775.98,284.11 775.84,281.48 L775.77,277.48 L775.54,273.55 C774.955441,263.235251 773.279415,253.011494 770.54,243.05 C767.853714,233.403538 763.906312,224.153706 758.8,215.54 C758.5,215.01 758.21,214.45 757.89,213.93 L756.89,212.4 L754.83,209.33 L753.83,207.79 L753.57,207.41 L753.16,206.83 L752.33,205.63 L751.07,203.8 L749.95,202.2 C748.51,200.2 747.1,198.34 745.6,196.54 C744.1,194.74 742.51,193.04 740.86,191.37 C737.489318,187.984092 733.858176,184.867863 730,182.05 C725.992528,179.136276 721.781785,176.512916 717.4,174.2 C712.891854,171.789903 708.251123,169.636471 703.5,167.75 C701.13,166.75 698.63,165.91 696.19,165 C694.95,164.57 693.69,164.19 692.44,163.78 C691.19,163.37 689.95,162.95 688.66,162.61 C678.306845,159.612535 667.758178,157.33707 657.09,155.8 C646.149267,154.230121 635.13447,153.228776 624.09,152.8 L615.72,152.55 C614.36,152.5 612.87,152.48 611.39,152.46 L606.97,152.39 L589.29,152.15 C565.74,151.88 542.29,151.77 518.96,152.15 C495.63,152.53 472.51,153.33 449.74,155.15 C426.97,156.97 404.53,159.56 383.19,164.28 C380.53,164.88 377.85,165.43 375.19,166.06 L367.36,168.06 C364.72,168.66 362.19,169.47 359.64,170.22 L355.81,171.34 L353.9,171.9 C353.27,172.1 352.66,172.32 352.04,172.54 L344.6,175.09 C343.34,175.49 342.18,176.03 340.97,176.51 L337.38,177.97 L333.79,179.42 L330.34,181 L326.9,182.66 C325.76,183.21 324.59,183.73 323.52,184.38 L317,188.13 C316.447523,188.426181 315.916249,188.760316 315.41,189.13 L313.87,190.13 L310.78,192.19 C309.78,192.89 308.68,193.51 307.73,194.27 L304.82,196.52 C302.847236,197.948407 300.954387,199.484051 299.15,201.12 C297.36,202.76 295.52,204.34 293.75,205.99 L288.75,211.22 C288.33,211.65 287.9,212.07 287.5,212.52 L286.35,213.92 L284,216.73 L281.69,219.49 L279.57,222.49 L277.45,225.43 C276.711964,226.393738 276.024375,227.395081 275.39,228.43 L271.52,234.63 C270.84,235.63 270.3,236.76 269.7,237.84 L268,241 L266.23,244.24 C265.66,245.34 265.17,246.5 264.63,247.63 L261.41,254.38 L258.54,261.38 C258.07,262.54 257.54,263.74 257.11,264.86 L256,268.13 C255.2,270.25 254.43,272.35 253.63,274.45 Z M190.15,255.52 C191.436667,252.093333 192.75,248.67 194.09,245.25 L196.09,240.14 C196.78,238.52 197.5,237.04 198.21,235.49 L202.54,226.32 C204.15,223.32 205.8,220.32 207.44,217.32 C208.29,215.83 209.08,214.32 209.97,212.86 L212.75,208.48 L215.55,204.11 C216.49,202.66 217.38,201.2 218.46,199.81 L224.69,191.42 C225.69,190.01 226.87,188.69 228,187.35 L231.41,183.35 C240.592755,172.742474 250.899787,163.163036 262.15,154.78 C273.208094,146.528475 285.016594,139.33356 297.42,133.29 C309.427872,127.450195 321.839829,122.480734 334.56,118.42 C346.876768,114.509796 359.437157,111.413126 372.16,109.15 L376.86,108.27 C378.43,107.97 379.98,107.78 381.54,107.53 L390.91,106.11 C394.02,105.66 397.12,105.34 400.23,104.95 C403.34,104.56 406.45,104.15 409.54,103.95 C415.72,103.4 421.91,102.74 428.05,102.4 L437.28,101.79 L446.46,101.39 C470.93,100.39 495.12,100.44 519.14,101.04 C543.16,101.64 567,102.71 590.75,103.94 L608.55,104.87 L613,105 C614.48,105.08 615.94,105.15 617.53,105.27 L626.89,105.88 C639.37,106.88 651.89,108.44 664.44,110.65 C677.160841,112.895817 689.710868,116.019959 702,120 C703.55,120.47 705.1,121 706.65,121.59 C708.2,122.18 709.74,122.67 711.28,123.25 C714.36,124.49 717.45,125.59 720.5,126.97 C726.690068,129.596237 732.726403,132.571002 738.58,135.88 C750.779747,142.616772 761.944581,151.077122 771.73,161 C774.21,163.56 776.593333,166.226667 778.88,169 C781.14,171.77 783.3,174.66 785.25,177.48 L786.65,179.53 L787.88,181.36 L788.88,182.87 L790.3,185.03 L793.14,189.36 L794.55,191.53 C795,192.26 795.4,193.02 795.83,193.77 C802.717773,205.59434 808.048587,218.259225 811.69,231.45 C815.243451,244.316613 817.422303,257.523808 818.19,270.85 L818.47,275.78 L818.58,280.69 C818.71,283.98 818.58,287.23 818.58,290.5 C818.36,297.01 817.99,303.5 817.27,309.94 C817.11,311.55 816.88,313.21 816.68,314.84 L816.38,317.18 L816.08,319.34 L814.91,328 C814.2,333.71 813.51,339.43 812.91,345.15 C811.703333,356.603333 810.773333,368.07 810.12,379.55 C809.466667,391.03 809.093333,402.513333 809,414 C808.933333,425.48 809.133333,436.95 809.6,448.41 C810.06,459.84 810.89,471.41 811.8,483.02 L814.8,518.41 C815.06,521.41 815.25,524.41 815.48,527.41 C815.71,530.41 815.93,533.41 816.08,536.51 L816.61,545.69 L816.94,554.98 C817.68,579.8 816.38,605.76 810.94,631.11 C809.77,637.48 808,643.7 806.41,649.97 C806.03,651.55 805.52,653.07 805.05,654.62 L803.61,659.23 L802.17,663.85 L801.43,666.16 L800.59,668.55 C798.34,674.91 795.85,680.91 793.24,686.82 C791.91,689.75 790.56,692.66 789.15,695.55 L787,699.93 L785.88,702.11 L785.3,703.23 L784.99,703.81 L784.83,704.11 C785.19,703.64 782.2,708.63 780.41,710.11 L785.09,703.61 C783.3,707.26 781.41,710.98 779.37,714.77 C778.37,716.65 777.28,718.55 776.37,720.25 C775.46,721.95 774.6,723.38 773.91,724.71 C773.22,726.04 772.51,727.41 771.91,728.82 C771.31,730.23 770.56,731.64 770.07,732.99 C769.58,734.34 768.95,735.72 768.54,737.06 L767.85,739.06 L767.28,741.06 L766.99,742.06 L766.74,743.06 L766.25,745.14 L765.82,747.34 L765.61,748.46 L765.41,749.66 C764.89,752.75 764.41,756.5 763.81,760.44 C763.5,762.44 763.22,764.44 762.81,766.64 L762.27,769.84 L761.64,773.09 C760.8,777.43 759.77,781.8 758.64,786.09 C758.11,788.27 757.42,790.33 756.81,792.45 C756.2,794.57 755.51,796.62 754.81,798.67 C753.46,802.8 751.96,806.82 750.26,811.03 C749.4,813.13 748.48,815.27 747.49,817.41 C746.5,819.55 745.44,821.68 744.55,823.41 L743.49,825.53 L743.22,826.12 C743.22,826.22 743.13,826.34 743.1,826.42 C743.088808,826.473088 743.068508,826.523838 743.04,826.57 C743.053333,826.629259 743.053333,826.690741 743.04,826.75 C743.02179,826.86844 742.995054,826.98541 742.96,827.1 C742.96,827.19 742.89,827.46 742.85,827.64 L742.79,827.93 L742.73,828.33 L742.59,829.15 L742.37,830.98 C742.25,832.21 742.14,833.4 742.11,834.68 C742.01,837.22 742.03,840.01 742.11,843.77 C742.283308,848.417012 742.216553,853.069873 741.91,857.71 C741.489455,863.24072 740.483837,868.711282 738.91,874.03 L738.33,876.03 L737.68,877.91 L737.01,879.78 L736.68,880.72 L736.38,881.47 C735.55,883.53 734.55,886 733.38,888.47 C730.982318,893.599046 728.063638,898.467979 724.67,903 C723.82,904.15 722.94,905.26 722.03,906.35 L720.9,907.69 L719.65,909.13 C717.93,911.13 716.05,913.03 714.11,914.93 C710.028622,918.887089 705.501653,922.356983 700.62,925.27 C695.324499,928.418836 689.597347,930.777076 683.62,932.27 C682.08,932.6 680.54,932.98 678.97,933.27 C677.4,933.56 675.83,933.69 674.26,933.86 C671.110505,934.08003 667.949495,934.08003 664.8,933.86 C658.559498,933.409125 652.421563,932.027163 646.59,929.76 C640.882032,927.558781 635.515223,924.55889 630.65,920.85 C625.721594,917.093964 621.345471,912.663981 617.65,907.69 C616.65,906.45 615.81,905.05 614.93,903.69 C614.05,902.33 613.26,900.84 612.46,899.39 C611.66,897.94 610.98,896.33 610.34,894.74 C609.7,893.15 609.07,891.52 608.62,889.84 C606.749365,883.522499 605.908596,876.944913 606.13,870.36 C606.344763,865.269159 606.895966,860.198094 607.78,855.18 L608.69,849.54 C608.83,848.66 608.91,847.97 609.02,847.18 L609.19,845.08 L609.37,842.99 L609.47,841.99 C609.47,841.65 609.47,841.32 609.47,840.99 L609.47,836.99 C609.157915,831.64836 608.149382,826.370373 606.47,821.29 C604.72,815.74 602.13,809.5 599.17,802.63 C596.21,795.76 592.92,788.29 589.88,780.49 C589.12,778.49 588.32,776.61 587.61,774.6 L585.44,768.6 C584.7,766.6 584.09,764.53 583.44,762.49 C582.79,760.45 582.09,758.4 581.5,756.33 L579.69,750 L578.81,746.88 L578.05,743.63 L576.54,737.12 C576.3,736.02 576.01,734.98 575.82,733.82 L575.23,730.38 L574.09,723.48 C573.8,721.09 573.58,718.64 573.34,716.21 C573.23,714.98 573.1,713.78 573.01,712.54 L572.9,708.72 L572.81,704.9 L572.81,702.98 L572.89,700.98 C573.03,698.39 573.09,695.75 573.35,693.19 C573.61,690.63 573.92,688.04 574.28,685.59 L574.88,682.04 L575.18,680.27 L575.33,679.38 L575.48,678.59 L576.68,672.52 C578.2,665.07 578.68,660.8 578.6,656 C578.53,654.79 578.49,653.58 578.46,652.37 L578.01,648.45 L577.92,647.45 C577.890151,647.113954 577.84006,646.780014 577.77,646.45 L577.38,644.33 L576.61,640.06 L575.51,635.51 L574.98,633.24 L574.72,632.1 L574.4,630.99 C573.58,627.99 572.68,625.08 571.65,622.15 C569.574918,616.21756 567.171199,610.405235 564.45,604.74 C561.66,598.93 558.45,593.12 554.97,587.09 C551.49,581.06 547.61,574.85 543.46,568.09 C539.31,561.33 534.98,554.09 530.67,545.6 C528.53,541.4 526.42,536.8 524.49,531.85 C522.414966,526.615357 520.743423,521.229644 519.49,515.74 C519.13,514.33 518.86,512.83 518.58,511.34 C518.3,509.85 518.04,508.34 517.85,506.82 L517.56,504.52 L517.42,503.37 L517.33,502.54 C517.24,501.54 517.17,501.11 517.1,500.54 C516.870901,498.722835 516.482745,496.929286 515.94,495.18 C515.190095,492.557806 513.933021,490.10821 512.24,487.97 L514.94,490.97 C514.09,490.17 512.48,488.28 512.43,488.21 L512.43,488.27 L512.29,488.13 L511.86,487.68 C511.54,487.34 511.17,486.98 510.8,486.68 C510.114402,486.037557 509.396823,485.430118 508.65,484.86 C508.35,484.63 507.98,484.36 507.81,484.26 C507.744618,484.242253 507.683427,484.211658 507.63,484.17 C507.554881,484.099848 507.466477,484.045446 507.37,484.01 C506.681262,483.639912 505.973628,483.306122 505.25,483.01 C502.81233,482.002875 500.305981,481.170767 497.75,480.52 C494.75,479.73 491.42,479 487.92,478.38 C480.456248,477.114374 472.933329,476.226576 465.38,475.72 C457.53,475.15 449.43,474.9 441.43,474.89 C439.43,474.89 437.43,474.89 435.56,474.89 L428.91,475.08 C426.39,475.13 423.81,475.15 421.26,475.16 C418.71,475.17 416.15,475.16 413.6,475.03 C403.358684,474.703907 393.141413,473.842733 382.99,472.45 C372.800614,471.027811 362.700819,469.024545 352.74,466.45 C342.740753,463.896905 332.903183,460.747948 323.28,457.02 L319.66,455.64 L316.09,454.14 C313.72,453.14 311.34,452.14 308.98,451.08 C304.38,448.9 299.42,446.59 295.55,444.59 C287.27,440.38 278.4,435.7 269.55,430.28 C260.378224,424.709561 251.649079,418.441026 243.44,411.53 C234.851052,404.300329 226.999384,396.237631 220,387.46 L217.39,384.06 C216.53,382.92 215.63,381.81 214.85,380.6 L210.08,373.43 C207.071493,368.554415 204.327526,363.52047 201.86,358.35 C196.901255,348.07464 193.072176,337.291523 190.44,326.19 C187.864427,315.195823 186.459934,303.959882 186.25,292.67 C186.134415,287.024821 186.307976,281.377427 186.77,275.75 L187.21,271.46 C187.36,270.03 187.58,268.56 187.78,267.11 C187.98,265.66 188.24,264.11 188.51,262.6 L188.98,260.21 L189.28,258.84 L189.43,258.14 C189.67,257.27 189.9,256.39 190.15,255.52 Z" id="Shape" fill="#FF4F15" fill-rule="nonzero"></path>
            <polygon id="Path" fill="url(#linearGradient-5)" opacity="0.3" style="mix-blend-mode: color-burn;" points="193 1027 805 0 5.58580959e-15 0 5.58580959e-15 1027"></polygon>
        </g>
    </g>
</svg>