<?xml version="1.0" encoding="UTF-8"?>
<svg width="512px" height="512px" viewBox="0 0 512 512" version="1.1" xmlns="http://www.w3.org/2000/svg" xmlns:xlink="http://www.w3.org/1999/xlink">
    <!-- Generator: Sketch 52.5 (67469) - http://www.bohemiancoding.com/sketch -->
    <title>vector-dusk</title>
    <desc>Created with Sketch.</desc>
    <defs>
        <linearGradient x1="0%" y1="50%" x2="100%" y2="50%" id="linearGradient-1">
            <stop stop-color="#FFAB72" offset="32%"></stop>
            <stop stop-color="#65FF58" offset="100%"></stop>
        </linearGradient>
        <linearGradient x1="11.8289245%" y1="2.27212184%" x2="116.517983%" y2="77.5560353%" id="linearGradient-2">
            <stop stop-color="#A455FF" offset="0%"></stop>
            <stop stop-color="#63006A" offset="64%"></stop>
        </linearGradient>
        <linearGradient x1="0.00447582246%" y1="50.00319%" x2="99.9821488%" y2="50.00319%" id="linearGradient-3">
            <stop stop-color="#FF4F15" offset="32%"></stop>
            <stop stop-color="#F7CC15" offset="100%"></stop>
        </linearGradient>
        <linearGradient x1="-4.87950549%" y1="28.3243611%" x2="104.15606%" y2="57.5079844%" id="linearGradient-4">
            <stop stop-color="#94F1FF" offset="0%"></stop>
            <stop stop-color="#B9CFCB" offset="13%"></stop>
            <stop stop-color="#D7B3A1" offset="26%"></stop>
            <stop stop-color="#ED9F83" offset="38%"></stop>
            <stop stop-color="#FA9371" offset="48%"></stop>
            <stop stop-color="#FF8F6A" offset="55%"></stop>
            <stop stop-color="#94F1FF" offset="100%"></stop>
        </linearGradient>
        <linearGradient x1="0%" y1="50%" x2="100%" y2="50%" id="linearGradient-5">
            <stop stop-color="#BC81B9" offset="0%"></stop>
            <stop stop-color="#4D2DBF" offset="69%"></stop>
        </linearGradient>
    </defs>
    <g id="dusk" stroke="none" stroke-width="1" fill="none" fill-rule="evenodd">
        <g>
            <rect id="Rectangle" fill="#2370CC" x="0" y="0" width="512" height="512"></rect>
            <polygon id="Path" fill="url(#linearGradient-1)" opacity="0.31" points="512 0 401.266187 0 96 512 512 512"></polygon>
            <path d="M77.102646,165.109579 C77.102646,165.109579 64.6191809,215.094589 123.659096,239.617986 C182.699012,264.141383 226.859394,262.699124 226.859394,262.699124 C226.859394,262.699124 241.26071,261.740944 242.700343,282.416653 C244.139977,303.092362 245.57961,349.738717 255.652063,370.414425 C265.724516,391.090134 276.295111,413.213092 282.551788,457.933108 C286.083623,483.235025 296.400165,485.879999 299.538467,487.292315 C311.713083,492.712016 326.11938,483.644248 328.719687,482.007358 C351.066385,467.939093 363.295797,431.75286 353.128697,412.639183 C350.817313,408.297434 345.013947,400.442361 344.954169,389.183757 C344.953568,385.598559 345.410585,382.028 346.3141,378.558948 C348.306672,371.472415 351.992931,367.200533 354.04528,361.37161 C356.949454,353.117296 376.152869,307.918191 358.872287,261.271836 C341.591704,214.625481 358.872287,178.564011 358.872287,178.564011 C358.872287,178.564011 365.422868,152.797976 350.687796,130.255814 C338.836973,112.120278 318.577494,104.170386 272.952572,97.3184069 C177.767396,82.9407297 124.804825,74.9608943 95.5737906,109.215798 C88.7342864,117.230567 77.8847306,133.784109 77.102646,165.109579 Z" id="Path" fill="url(#linearGradient-2)" style="mix-blend-mode: hard-light;"></path>
            <path d="M125.586822,86.7235243 C125.586822,86.7235243 128.882543,54.7750338 103.572393,72.2010265 C78.2622434,89.6270192 88.476502,123.765689 114.653947,107.906981 C140.831392,92.0482727 125.586822,86.7235243 125.586822,86.7235243 Z" id="Path" fill="url(#linearGradient-3)"></path>
            <path d="M111.09568,132.074688 C111.09568,132.074688 106.688136,149.754062 115.553082,169.234298 C125.28059,190.625143 144.232029,199.993615 157.753814,206.543564 C180.858515,217.742829 202.711753,218.780444 216.088946,218.161866 C218.542014,218.062095 251.324364,216.949651 264.452261,226.103616 C266.669844,227.67309 268.680155,229.516846 270.435352,231.591007 C276.184105,238.719626 276.717597,246.945723 276.917033,249.235461 C278.687031,267.693047 297.359259,282.938015 303.885814,311.377663 C310.512086,340.366049 297.09002,338.630038 303.885814,369.144917 C309.684426,395.085308 320.309397,404.698218 316.904021,424.652365 C315.866952,430.698472 313.782843,436.699681 316.904021,443.070043 C320.221774,449.481042 326.698786,453.641057 333.90597,453.989949 C343.693309,454.309216 349.756174,446.93117 351.486285,444.81603 C353.676225,442.073451 355.307471,438.927878 356.287715,435.557306 C359.403908,425.984304 356.31763,421.09055 357.783487,411.61233 C358.715852,405.47643 360.196667,406.244665 363.961028,395.778715 C370.696991,377.061725 366.992461,371.728979 374.197099,357.227303 C376.191462,353.236474 377.08394,352.388423 380.67878,345.254815 C383.664064,339.719475 386.246805,333.976099 388.406939,328.069306 C400.92157,292.481086 394.739043,264.505372 393.15851,228.009237 C392.161004,203.996477 393.448177,179.94322 397.002646,156.174309 C398.633038,144.062142 400.203599,118.416075 384.87193,97.0501721 C381.177371,91.9020022 367.421249,66.310809 307.041894,64.1607497 C201.360572,60.3794389 135.54159,61.8710114 111.09568,132.074688 Z" id="Path" fill="url(#linearGradient-4)"></path>
            <path d="M126.578217,136.563963 C126.667872,136.270172 126.752546,135.966422 126.817297,135.667651 L126.817297,135.727405 L126.792393,135.861852 L126.727642,136.305028 C126.682814,136.638656 126.633006,136.987221 126.593159,137.355705 C126.553312,137.724189 126.508485,138.102631 126.4786,138.496013 L126.393925,139.676157 C126.329174,141.284538 126.309251,142.922797 126.393925,144.566035 C126.547526,147.833298 127.048431,151.074948 127.88818,154.236244 C128.726286,157.335567 129.907401,160.331819 131.409639,163.169484 C132.145572,164.578419 132.951825,165.949511 133.82535,167.27758 C134.296871,167.914957 134.76175,168.557314 135.219988,169.20465 C135.448901,169.529314 135.696711,169.84024 135.962134,170.135819 L136.719223,171.057028 C140.853327,175.922009 146.182834,180.064962 152.657936,183.724901 C155.900469,185.5723 159.402005,187.290231 163.262162,189.087834 C165.314271,190.083736 166.903162,190.726092 168.641478,191.502896 C169.508145,191.861421 170.384774,192.185089 171.256423,192.533654 L172.561405,193.031605 L173.891291,193.48972 C177.429536,194.741964 181.040674,195.777954 184.704712,196.591955 C188.37104,197.44273 192.082778,198.084462 195.821965,198.514046 C199.580457,198.955027 203.359432,199.199356 207.143432,199.246034 C208.089793,199.246034 209.041135,199.246034 209.987496,199.246034 C210.933858,199.246034 211.880219,199.211177 212.846503,199.1813 L216.193633,199.041874 C217.473711,198.997058 218.684057,198.972161 219.929269,198.957222 C224.835404,198.907427 229.68675,199.031915 234.642694,199.355583 C239.748741,199.669615 244.833595,200.264739 249.874127,201.138248 C252.508995,201.611301 255.198653,202.169006 257.992909,202.930871 C261.018299,203.740416 263.981299,204.767203 266.858818,206.003229 C268.539341,206.731785 270.177331,207.554717 271.764954,208.468086 C272.173383,208.687185 272.616679,208.966037 273.059974,209.254849 L274.369937,210.106345 C275.2117,210.674009 275.914,211.201837 276.641204,211.764522 C278.029038,212.845904 279.359097,213.999419 280.625882,215.220302 C281.243507,215.812863 281.841209,216.425343 282.443892,217.06272 C282.747723,217.386389 283.046574,217.710057 283.360368,218.058622 L283.858452,218.611348 L284.127418,218.930037 L284.286805,219.119258 L284.37148,219.223828 C284.37148,219.223828 283.589487,218.302618 283.191019,217.929155 L284.535848,219.423008 C286.546695,221.95571 288.290918,224.688981 289.740834,227.579445 C291.126088,230.349809 292.243549,233.246091 293.078002,236.228854 C293.867272,239.048363 294.423675,241.927892 294.741605,244.838427 L294.995628,247.44271 C294.995628,247.537321 294.995628,247.626952 294.995628,247.726542 L295.050418,248.035272 C295.085284,248.239432 295.100226,248.438612 295.159996,248.66269 C295.368382,249.68019 295.658203,250.679306 296.026664,251.650396 C296.477726,252.908346 296.994791,254.141655 297.575708,255.345193 C298.830881,258.024169 300.519389,261.036773 302.367283,264.308311 C304.215178,267.579849 306.22246,271.080444 308.194876,274.765281 C310.167291,278.450119 312.09986,282.423768 313.853119,286.536843 C315.638236,290.724779 317.158722,295.020579 318.405614,299.398917 C319.038182,301.609819 319.586075,303.880476 320.074198,306.111296 C320.562321,308.342117 320.901019,310.622732 321.289525,312.87845 C321.443931,314.053615 321.568452,315.263636 321.702935,316.453738 L321.892207,318.246362 C321.929519,318.553791 321.951131,318.862922 321.956958,319.172551 L322.001786,320.123637 C322.056575,321.393412 322.111365,322.648249 322.14125,323.923003 C322.171135,325.197758 322.066537,326.557164 322.011748,327.871755 C322.011748,328.524071 321.912131,329.191325 321.842399,329.863559 L321.618261,331.855363 L321.49872,332.851265 C321.453893,333.174933 321.389142,333.493621 321.334352,333.81231 L320.990674,335.719462 L320.811363,336.670549 C320.746612,336.979278 320.676881,337.253151 320.607149,337.546943 L320.198719,339.279812 L319.989524,340.136288 L319.79029,340.883214 L319.386841,342.377067 C318.320939,346.191372 317.713276,348.352479 317.439329,350.88705 L317.364617,351.350144 L317.364617,351.848095 L317.309827,352.843997 L317.240095,353.839899 C317.240095,354.178506 317.240095,354.53703 317.240095,354.885596 L317.269981,357.006867 L317.469214,359.277524 L317.563851,360.417832 C317.588755,360.796274 317.67841,361.214553 317.728219,361.607934 L318.08684,364.018017 L318.261169,365.228038 L318.505231,366.472916 L319.003316,368.962671 C319.162703,369.794249 319.38186,370.615868 319.566151,371.452426 C319.750443,372.288983 319.929753,373.110602 320.173815,373.942181 L320.841249,376.431936 C321.060406,377.258534 321.339333,378.105051 321.578414,378.92169 C322.574584,382.292819 323.755045,385.693824 325.065008,389.458333 C326.532167,393.564785 327.784061,397.744954 328.815586,401.981801 C329.966972,406.874225 330.46937,411.896851 330.30984,416.920331 C330.235128,418.180147 330.13053,419.434983 330.025932,420.68982 C330.025932,421.003529 329.981105,421.322217 329.941258,421.625968 L329.801794,422.537218 L329.512905,424.354739 L329.214054,426.162301 C329.094514,426.710047 328.974973,427.317547 328.860414,427.815498 L328.183018,430.628922 C327.860745,431.895278 327.60965,433.17868 327.43091,434.473103 C327.35138,435.035675 327.339674,435.605755 327.396044,436.171116 C327.396044,436.275686 327.445853,436.360337 327.440872,436.464907 C327.477266,436.572577 327.507204,436.682321 327.530527,436.793555 C327.595278,436.913063 327.625163,437.037551 327.694895,437.171998 C327.764627,437.306444 327.814436,437.445871 327.919033,437.590276 C328.318201,438.233164 328.808049,438.81512 329.373441,439.318166 C330.509762,440.357107 331.920336,441.048379 333.437813,441.30997 C333.784898,441.35422 334.134007,441.380811 334.483791,441.389642 C334.649617,441.37807 334.816049,441.37807 334.981876,441.389642 C335.151225,441.389642 335.320574,441.329888 335.479961,441.319929 C336.252109,441.181005 336.999175,440.927575 337.696438,440.568023 C338.594598,440.100795 339.431158,439.523725 340.186862,438.850092 C340.618717,438.450069 341.027789,438.026145 341.412151,437.580317 L341.725944,437.206854 C341.835523,437.077387 341.979967,436.893145 342.079584,436.763678 C342.22901,436.554538 342.378435,436.350378 342.512918,436.141239 C343.073489,435.268488 343.504658,434.319165 343.792996,433.322836 C343.962345,432.77509 344.101808,432.197467 344.291081,431.400746 L344.365793,431.087036 L344.400659,430.862959 L344.475372,430.414803 L344.560046,429.971626 L344.599893,429.548368 C344.709518,428.462273 344.709518,427.367904 344.599893,426.281809 C344.510238,425.131543 344.320966,423.687485 344.101808,421.710619 C343.849575,419.3959 343.749743,417.067112 343.802958,414.739305 C343.832843,413.459571 343.942421,412.135022 344.086866,410.840349 L344.34587,408.893361 L344.5202,407.897459 L344.609855,407.399508 L344.724414,406.841803 C344.809089,406.45838 344.87384,406.119774 344.978438,405.706474 L345.302193,404.486494 L345.710622,403.201781 C345.860048,402.773543 346.019435,402.350285 346.183803,401.927026 C346.348171,401.503768 346.512539,401.140264 346.681888,400.746882 L347.179972,399.75098 L347.947023,398.257128 C348.375376,397.425549 348.709093,396.763275 349.022886,396.09602 C349.33668,395.428766 349.645492,394.726655 349.954305,393.994667 C350.552007,392.535671 351.164651,390.947207 351.697602,389.353764 C351.971548,388.557042 352.260437,387.7653 352.489556,386.978538 C352.718675,386.191775 352.987641,385.400033 353.196837,384.61825 C354.092102,381.405329 354.782507,378.138845 355.263889,374.838492 C355.557759,373.001053 355.821744,371.059044 356.260058,368.823244 L356.409484,368.001625 L356.583813,367.14515 L356.957377,365.422239 L357.405653,363.659493 L357.634772,362.783099 L357.898757,361.901726 L358.44167,360.143959 L359.054314,358.426028 C359.452782,357.265802 359.925962,356.185248 360.3842,355.089756 C360.842438,353.994264 361.355466,352.973464 361.84857,351.922788 C362.341674,350.872111 362.874624,349.86625 363.43746,348.830512 C364.000296,347.794774 364.573094,346.838708 365.046274,346.032027 C365.519455,345.225347 365.947808,344.498338 366.366199,343.751412 C367.19634,342.267518 368.026481,340.717231 368.856623,339.10055 L371.19264,335.863868 C370.340915,336.516184 368.90145,338.916308 369.120608,338.607578 L369.175397,338.512967 L369.284976,338.313787 L369.509114,337.895508 L369.977314,337.024094 L370.89877,335.241429 C371.511415,334.041368 372.099155,332.826367 372.671952,331.616346 C373.812566,329.196304 374.88843,326.761324 375.784982,324.391077 L376.118699,323.504725 L376.442454,322.558618 L377.084984,320.651465 L377.727513,318.749293 C377.941689,318.111915 378.175789,317.479518 378.340157,316.832181 C379.047438,314.257775 379.834412,311.703286 380.387286,309.089043 C382.847825,298.691827 383.729435,287.936085 383.684607,276.752106 L383.63978,272.54442 L383.505297,268.286939 C383.470431,266.872758 383.395718,265.43368 383.325986,263.994601 C383.256254,262.555523 383.196484,261.131383 383.106829,259.677366 L382.050889,242.044922 L381.816789,237.563363 C381.737096,236.06951 381.662383,234.575657 381.607594,233.056906 L381.418321,228.530532 C381.368513,227.036679 381.318704,225.49801 381.288819,223.984239 C381.152676,217.912557 381.152676,211.842534 381.288819,205.774171 C381.424962,199.705808 381.715512,193.652385 382.160468,187.613899 C382.588821,181.568774 383.146676,175.540247 383.834033,169.528319 C384.162769,166.540613 384.556256,163.52303 384.949743,160.525365 L385.587291,156.078662 L385.741697,154.968232 L385.81641,154.425465 L385.87618,153.927514 C385.955874,153.280178 386.05051,152.64778 386.115261,151.980526 C386.424074,149.331426 386.57848,146.677348 386.683078,144.01331 C386.683078,142.698719 386.752809,141.37417 386.683078,140.064558 L386.648212,138.072754 L386.533652,136.115807 C386.242492,130.979568 385.407689,125.888638 384.043228,120.928302 C382.70523,116.124836 380.739089,111.518873 378.195713,107.22967 C378.046287,106.965756 377.901843,106.686903 377.742456,106.427969 L377.244371,105.666104 L376.218316,104.137394 L375.720231,103.37055 L375.590729,103.181328 L375.386514,102.892517 L374.973104,102.294976 L374.345517,101.383725 L373.787662,100.587004 C373.07042,99.5911017 372.368121,98.6649129 371.620993,97.7686011 C370.873866,96.8722893 370.081911,96.0257726 369.260071,95.1941945 C367.581186,93.5081782 365.772569,91.9564489 363.850871,90.5532912 C361.85481,89.1023995 359.757503,87.7960947 357.575002,86.6443759 C355.329563,85.4442657 353.018086,84.3719621 350.651624,83.432592 C349.471163,82.934641 348.225951,82.5163622 347.010624,82.0632268 C346.392999,81.8491079 345.765412,81.6598865 345.142806,81.4557266 C344.5202,81.2515667 343.902575,81.0424273 343.260045,80.8731239 C338.103296,79.3805332 332.849165,78.2474632 327.535508,77.4820777 C322.086095,76.7003549 316.599792,76.2017341 311.09871,75.9882247 L306.92974,75.8637369 C306.252345,75.8388394 305.510199,75.8288804 304.773033,75.8189213 L302.571498,75.7840648 L293.765359,75.6645565 C282.035462,75.5301098 270.355374,75.4753352 258.735055,75.6645565 C247.114737,75.8537779 235.599017,76.2521387 224.257626,77.1584095 C212.916235,78.0646803 201.739212,79.3543734 191.110083,81.7047021 C189.785177,82.0034727 188.45031,82.2773457 187.125404,82.5910548 L183.2254,83.5869568 C181.910457,83.8857274 180.650302,84.2890677 179.380186,84.662531 L177.472521,85.2202361 L176.521179,85.4990886 C176.207386,85.5986788 175.903554,85.7082281 175.594741,85.8177773 L171.88899,87.0875523 C171.261404,87.2867327 170.683625,87.5556262 170.080943,87.7946427 L168.292818,88.5216512 L166.504694,89.2436801 L164.786301,90.0304427 L163.07289,90.8570413 C162.505073,91.1309144 161.922314,91.3898489 161.389363,91.713517 L158.14185,93.5808332 C157.86667,93.7283169 157.60205,93.8946997 157.349895,94.0787842 L156.582845,94.5767352 L155.043763,95.6025143 C154.545678,95.95108 153.997785,96.2598096 153.524604,96.6382523 L152.075177,97.7586421 C151.092574,98.4699188 150.149774,99.2345942 149.251036,100.049217 C148.359465,100.865856 147.442989,101.652619 146.561379,102.474238 L144.070955,105.078522 C143.861759,105.292641 143.647583,105.50178 143.448349,105.725858 L142.875551,106.422989 L141.705052,107.822232 L140.554476,109.196576 L139.498536,110.690429 L138.442596,112.154405 C138.074992,112.6343 137.732514,113.132919 137.416542,113.648258 L135.488954,116.735554 C135.150256,117.233505 134.88129,117.79619 134.582439,118.333977 L133.735695,119.907502 L132.854085,121.520863 C132.570177,122.06861 132.326115,122.646233 132.057149,123.208917 L130.453316,126.570086 L129.023813,130.055743 C128.789713,130.633367 128.525728,131.230908 128.311552,131.788613 L127.758678,133.416913 C127.36021,134.472569 126.976684,135.518266 126.578217,136.563963 Z M94.9597938,127.137751 C95.6006631,125.431438 96.2548143,123.726786 96.9222479,122.023794 L97.9184175,119.479264 C98.262096,118.672584 98.620717,117.935616 98.9743572,117.163792 L101.131064,112.597582 C101.932981,111.103729 102.754821,109.609876 103.57168,108.116023 C103.995052,107.374076 104.388539,106.62217 104.831834,105.895161 L106.21651,103.714136 L107.611148,101.53809 C108.079347,100.816061 108.522643,100.089053 109.060574,99.3969008 L112.163643,95.219092 C112.661727,94.5169811 113.249467,93.8596858 113.812303,93.1924315 L115.510772,91.2006275 C120.084563,85.9185994 125.218339,81.1485087 130.821899,76.9741676 C136.329768,72.8653126 142.211402,69.2825975 148.38935,66.2732008 C154.370288,63.3652641 160.552495,60.8907161 166.888219,58.8686696 C173.023014,56.9215796 179.279153,55.3795897 185.616207,54.2526639 L187.957206,53.814467 C188.739199,53.6650817 189.511231,53.570471 190.288243,53.4459833 L194.955297,52.7388928 C196.504341,52.5148149 198.048404,52.3554706 199.597448,52.1612697 C201.146491,51.9670688 202.695535,51.7629089 204.234617,51.6633187 C207.312781,51.3894457 210.395926,51.060798 213.454167,50.8914947 L218.051489,50.5877446 L222.623908,50.3885642 C234.812043,49.8906132 246.860714,49.9155107 258.824711,50.2142813 C270.788707,50.5130519 282.663049,51.0458595 294.492563,51.6583392 L303.358472,52.1214336 L305.57495,52.1861672 C306.312115,52.2260033 307.039319,52.2608599 307.831274,52.320614 L312.493347,52.6243641 C318.709446,53.1223151 324.945467,53.8991187 331.196431,54.9995903 C337.532489,56.1178972 343.783467,57.6735668 349.904496,59.6554321 C350.676528,59.8894691 351.448559,60.1533831 352.220591,60.4471742 C352.992622,60.7409653 353.759673,60.9849613 354.526723,61.2737729 C356.060824,61.8912321 357.599906,62.4389782 359.119065,63.1261505 C362.202244,64.4338879 365.20885,65.915175 368.124438,67.5628939 C374.200947,70.9174762 379.761981,75.1303159 384.635949,80.0714228 C385.871199,81.3461774 387.058301,82.6740468 388.197255,84.0550308 C389.322927,85.434355 390.39879,86.8734334 391.370056,88.2776552 L392.067374,89.2984547 L392.680019,90.209705 L393.178103,90.961611 L393.885384,92.0371852 L395.299945,94.193313 L396.002244,95.2738666 C396.226382,95.6373708 396.425616,96.0158136 396.639793,96.3892768 C400.070488,102.277219 402.725685,108.583711 404.539418,115.15207 C406.309337,121.559013 407.39459,128.135549 407.776969,134.771339 L407.916432,137.226238 L407.971222,139.671177 C408.035973,141.309436 407.971222,142.927777 407.971222,144.556076 C407.861643,147.797737 407.677352,151.029439 407.318731,154.236244 C407.239037,155.037945 407.124478,155.864543 407.024861,156.676204 L406.875435,157.841409 L406.72601,158.916983 L406.143251,163.229239 C405.78961,166.072539 405.445932,168.920818 405.147081,171.769098 C404.546058,177.472297 404.08284,183.182135 403.757424,188.898612 C403.432009,194.61509 403.246057,200.333227 403.199569,206.053024 C403.166364,211.769501 403.265981,217.480999 403.49842,223.187518 C403.727539,228.879097 404.14095,234.64039 404.594207,240.421601 L406.088461,258.044087 C406.217963,259.53794 406.312599,261.031793 406.427159,262.525646 C406.541718,264.019499 406.651297,265.513352 406.72601,267.057 L406.989995,271.62819 L407.154363,276.254155 C407.522945,288.613298 406.875435,301.540106 404.165854,314.163164 C403.583095,317.335112 402.701485,320.432367 401.90953,323.55452 C401.720258,324.341282 401.466234,325.098168 401.232134,325.869992 L400.514892,328.165546 L399.79765,330.466079 L399.429068,331.616346 L399.010676,332.806449 C397.889986,335.973417 396.649754,338.961123 395.349753,341.904014 C394.6873,343.36301 394.014886,344.812047 393.312586,346.251126 L392.241704,348.432151 L391.683849,349.517684 L391.39496,350.075389 L391.240553,350.364201 L391.16086,350.513586 C391.34017,350.279549 389.850897,352.764325 388.959325,353.501292 L391.290362,350.264611 C390.39879,352.082132 389.45741,353.93451 388.441317,355.821744 C387.943232,356.757892 387.40032,357.703999 386.947063,358.550515 C386.493805,359.397032 386.065452,360.109102 385.721774,360.771377 C385.378095,361.433652 385.024455,362.115844 384.725604,362.817955 C384.426753,363.520066 384.05319,364.222177 383.809128,364.894411 C383.565067,365.566645 383.251273,366.253817 383.047059,366.921072 L382.70338,367.916974 L382.419472,368.912876 L382.275027,369.410827 L382.150506,369.908778 L381.906444,370.944516 L381.692268,372.040008 L381.58767,372.597713 L381.488053,373.195254 C381.229049,374.733923 380.989968,376.601239 380.691118,378.563166 C380.536711,379.559068 380.397247,380.55497 380.193033,381.650462 L379.924067,383.243905 L379.610274,384.862246 C379.191882,387.023353 378.678855,389.199399 378.116019,391.335609 C377.852034,392.421142 377.508356,393.446921 377.204524,394.502577 C376.900692,395.558233 376.557014,396.579033 376.208354,397.599832 C375.53594,399.65637 374.788813,401.658133 373.942069,403.754506 C373.513716,404.800204 373.055478,405.865819 372.562374,406.931434 C372.06927,407.997049 371.5413,409.057685 371.098004,409.91914 L370.570034,410.974796 L370.435552,411.268587 C370.435552,411.318382 370.390724,411.378136 370.375781,411.417972 C370.370207,411.444407 370.360096,411.469678 370.345896,411.492665 C370.352537,411.522173 370.352537,411.552788 370.345896,411.582296 C370.336826,411.641273 370.323509,411.699519 370.30605,411.756579 C370.30605,411.801395 370.271184,411.935841 370.25126,412.025472 L370.221375,412.169878 L370.19149,412.369059 L370.121758,412.777378 L370.01218,413.688629 C369.952409,414.301108 369.89762,414.89367 369.882677,415.531047 C369.832869,416.795843 369.842831,418.185126 369.882677,420.057422 C369.969,422.371406 369.93575,424.688303 369.783061,426.998859 C369.573593,429.752886 369.07271,432.476958 368.288806,435.125419 L367.999917,436.121321 L367.676162,437.057469 L367.342445,437.988637 L367.178077,438.456711 L367.028652,438.830174 C366.615241,439.855953 366.117156,441.085892 365.534397,442.315831 C364.340148,444.869845 362.886398,447.294335 361.196079,449.551059 C360.772707,450.123703 360.334392,450.676428 359.881135,451.219195 L359.318299,451.886449 L358.695693,452.603499 C357.838987,453.599401 356.902588,454.545508 355.936303,455.491615 C353.903431,457.462051 351.648616,459.189888 349.217139,460.640428 C346.579531,462.208394 343.726923,463.382682 340.749698,464.126085 C339.982647,464.290409 339.215597,464.47963 338.433603,464.624036 C337.65161,464.768442 336.869617,464.833175 336.087624,464.917827 C334.518909,465.027391 332.944458,465.027391 331.375742,464.917827 C328.267443,464.693313 325.210231,464.005164 322.305618,462.876228 C319.462566,461.780129 316.78944,460.28633 314.366146,458.439484 C311.911382,456.569163 309.731702,454.363248 307.891044,451.886449 C307.392959,451.26899 306.974568,450.571859 306.536253,449.894645 C306.097939,449.217432 305.704452,448.475485 305.305984,447.753456 C304.907516,447.031427 304.568818,446.229726 304.250044,445.437984 C303.93127,444.646242 303.617476,443.834582 303.393338,442.998024 C302.461603,439.852218 302.042829,436.576903 302.153107,433.297939 C302.260077,430.76295 302.534623,428.237808 302.974947,425.739043 L303.428204,422.930599 C303.497936,422.492402 303.537783,422.148816 303.592572,421.755435 L303.677246,420.709738 L303.766902,419.66902 L303.81671,419.171069 C303.81671,419.001766 303.81671,418.837442 303.81671,418.673118 L303.81671,416.681314 C303.661265,414.021439 303.15893,411.39326 302.322456,408.863484 C301.450807,406.099856 300.160768,402.992641 298.686437,399.571718 C297.212106,396.150795 295.573407,392.431101 294.059229,388.547083 C293.680685,387.551181 293.282217,386.615033 292.928577,385.614152 L291.847733,382.626446 C291.47915,381.630544 291.175318,380.599785 290.851563,379.583965 C290.527808,378.568145 290.179149,377.547346 289.885278,376.516587 L288.983745,373.364557 L288.54543,371.81095 L288.166886,370.19261 L287.414778,366.950949 C287.295238,366.403203 287.150793,365.885333 287.056157,365.30771 L286.762287,363.594759 L286.19447,360.158897 C286.050026,358.968794 285.940447,357.748814 285.820907,356.538793 C285.766117,355.926314 285.701366,355.328772 285.656539,354.711313 L285.601749,352.80914 L285.556922,350.906968 L285.556922,349.950902 L285.596768,348.955 C285.6665,347.665307 285.696385,346.350716 285.825887,345.075962 C285.955389,343.801207 286.109796,342.511514 286.289106,341.291534 L286.587957,339.523808 L286.737383,338.642435 L286.812095,338.199258 L286.886808,337.805877 L287.48451,334.783315 C288.241599,331.07358 288.480679,328.947329 288.440833,326.557164 C288.405967,325.954643 288.386043,325.352123 288.371101,324.749602 L288.146963,322.797634 L288.102135,322.299683 C288.087268,322.132349 288.062318,321.966063 288.027422,321.801732 L287.833169,320.746076 L287.449644,318.619825 L286.901751,316.354148 L286.637766,315.2238 L286.508264,314.656135 L286.348876,314.10341 C285.940447,312.609557 285.492171,311.160519 284.979143,309.701523 C283.945576,306.747459 282.748321,303.853206 281.392933,301.032196 C280.003276,298.139101 278.404424,295.246006 276.671089,292.243361 C274.937754,289.240717 273.005185,286.148441 270.938133,282.782292 C268.871081,279.416144 266.714374,275.810978 264.567628,271.583375 C263.501727,269.49198 262.450768,267.201406 261.489464,264.736548 C260.455921,262.129953 259.623351,259.448132 258.99904,256.714558 C258.81973,256.012447 258.685247,255.265521 258.545783,254.523574 C258.406319,253.781627 258.276817,253.029721 258.182181,252.272835 L258.037737,251.127548 L257.968005,250.554904 L257.923177,250.141605 C257.87835,249.643654 257.843484,249.429535 257.808618,249.145703 C257.694507,248.240844 257.501172,247.347744 257.230839,246.476685 C256.857323,245.170961 256.231194,243.951183 255.387926,242.886459 L256.732754,244.380312 C256.309382,243.981951 255.507466,243.040824 255.482562,243.005967 L255.482562,243.035844 L255.41283,242.966131 L255.198653,242.742053 C255.039266,242.57275 254.854975,242.393487 254.670683,242.244102 C254.329198,241.924197 253.971782,241.621722 253.599801,241.337831 C253.450376,241.223303 253.266084,241.088856 253.18141,241.039061 C253.148844,241.030224 253.118366,241.014989 253.091755,240.994245 C253.054339,240.959313 253.010306,240.932223 252.962253,240.914573 C252.619203,240.730287 252.266741,240.564076 251.906313,240.416622 C250.692146,239.915123 249.443772,239.500774 248.170677,239.176724 C246.676422,238.783343 245.0178,238.419838 243.274503,238.111109 C239.556922,237.480889 235.80987,237.038809 232.047672,236.786559 C228.137706,236.502727 224.10322,236.378239 220.118541,236.37326 C219.122372,236.37326 218.126202,236.37326 217.194783,236.37326 L213.88252,236.467871 C212.627346,236.492768 211.342287,236.502727 210.072171,236.507707 C208.802055,236.512686 207.526958,236.507707 206.256841,236.442973 C201.155798,236.280595 196.06673,235.851772 191.010466,235.158259 C185.935288,234.450079 180.904733,233.452551 175.943401,232.170553 C170.962928,230.899237 166.062984,229.331211 161.269823,227.474876 L159.466756,226.787703 L157.688593,226.040777 C156.508132,225.542826 155.32269,225.044875 154.14721,224.517047 C151.85602,223.431514 149.385519,222.281247 147.457931,221.285345 C143.333789,219.188971 138.915777,216.85856 134.507727,214.159666 C129.939404,211.38586 125.59155,208.264437 121.502733,204.823085 C117.224708,201.223063 113.313912,197.208235 109.827625,192.837405 L108.527624,191.144371 C108.099271,190.576707 107.650994,190.023981 107.262488,189.421461 L104.886624,185.851152 C103.388132,183.42335 102.021404,180.916692 100.792367,178.342051 C98.3224913,173.225425 96.4152852,167.855962 95.1042384,162.327947 C93.8213846,156.853386 93.121828,151.258438 93.0172631,145.63663 C92.959692,142.825608 93.0461401,140.013482 93.2762672,137.211299 L93.4954245,135.075089 C93.5701372,134.36302 93.6797159,133.631032 93.7793328,132.909003 C93.8789498,132.186974 94.0084518,131.41515 94.1429347,130.663244 L94.3770346,129.473141 L94.52646,128.790948 L94.6011727,128.442382 C94.7207131,128.009165 94.8352726,127.570968 94.9597938,127.137751 Z" id="Shape" fill="#FF4F15" fill-rule="nonzero"></path>
            <polygon id="Path" fill="url(#linearGradient-5)" opacity="0.3" style="mix-blend-mode: color-burn;" points="96.1403727 512 401 0 0 0 0 512"></polygon>
        </g>
    </g>
</svg>